<svg width="80" height="64" viewBox="0 0 80 64" fill="none" xmlns="http://www.w3.org/2000/svg">
<path d="M78 44H76V30.4875C76 28.9 75.3625 27.375 74.2375 26.25L61.75 13.7625C60.625 12.6375 59.1 12 57.5125 12H52V6C52 2.6875 49.3125 0 46 0H6C2.6875 0 0 2.6875 0 6V46C0 49.3125 2.6875 52 6 52H8C8 58.625 13.375 64 20 64C26.625 64 32 58.625 32 52H48C48 58.625 53.375 64 60 64C66.625 64 72 58.625 72 52H78C79.1 52 80 51.1 80 50V46C80 44.9 79.1 44 78 44ZM20 58C16.6875 58 14 55.3125 14 52C14 48.6875 16.6875 46 20 46C23.3125 46 26 48.6875 26 52C26 55.3125 23.3125 58 20 58ZM60 58C56.6875 58 54 55.3125 54 52C54 48.6875 56.6875 46 60 46C63.3125 46 66 48.6875 66 52C66 55.3125 63.3125 58 60 58ZM70 32H52V18H57.5125L70 30.4875V32Z" fill="#D31026"/>
</svg>
