<svg width="80" height="80" viewBox="0 0 80 80" fill="none" xmlns="http://www.w3.org/2000/svg">
<g clip-path="url(#clip0)">
<path d="M42.5015 -1.76278e-05C42.0974 0.0377627 41.7047 0.15476 41.3459 0.344294C40.987 0.533829 40.669 0.792188 40.41 1.10462C40.151 1.41706 39.9561 1.77744 39.8364 2.16521C39.7166 2.55298 39.6745 2.96053 39.7122 3.3646C39.7886 4.18065 40.1859 4.93297 40.8169 5.45605C41.1293 5.71505 41.4897 5.90998 41.8775 6.02971C42.2652 6.14943 42.6728 6.19161 43.0769 6.15383C56.7446 6.15383 67.6923 16.9631 67.6923 30.7692C67.6923 31.5853 68.0164 32.3679 68.5935 32.9449C69.1705 33.522 69.9531 33.8461 70.7692 33.8461C71.5852 33.8461 72.3679 33.522 72.9449 32.9449C73.5219 32.3679 73.8461 31.5853 73.8461 30.7692C73.8461 13.6769 60.0246 -1.76278e-05 43.0769 -1.76278e-05C42.9805 -0.00455142 42.884 -0.00455142 42.7876 -1.76278e-05C42.6913 -0.00454688 42.5948 -0.00454688 42.4984 -1.76278e-05H42.5015ZM42.5015 12.3077C41.6854 12.384 40.9331 12.7813 40.41 13.4123C39.887 14.0433 39.6359 14.8562 39.7122 15.6723C39.7886 16.4883 40.1859 17.2407 40.8169 17.7637C41.4479 18.2868 42.2608 18.5378 43.0769 18.4615C47.9815 18.4615 50.8615 19.5108 52.5969 21.2492C54.3323 22.9877 55.3846 25.88 55.3846 30.7692C55.3846 31.5853 55.7087 32.3679 56.2858 32.9449C56.8628 33.522 57.6454 33.8461 58.4615 33.8461C59.2775 33.8461 60.0602 33.522 60.6372 32.9449C61.2142 32.3679 61.5384 31.5853 61.5384 30.7692C61.5384 24.9846 60.203 20.2092 56.923 16.9231C53.643 13.6369 48.8861 12.3077 43.0769 12.3077C42.9805 12.3031 42.884 12.3031 42.7876 12.3077C42.6913 12.3031 42.5948 12.3031 42.4984 12.3077H42.5015ZM20.6707 15.7692C17.8707 15.7538 15.5046 16.5108 13.843 18.1723C8.11379 23.9015 -0.443135 41.1908 16.1507 57.7877C31.3292 72.9692 50.0338 65.8246 55.7661 60.0954C60.3353 55.5261 58.2523 45.7354 51.3415 36.0584C50.043 37.1046 48.5076 40.6123 49.2276 41.8277C52.6461 47.5938 53.6307 52.7138 51.2461 55.0954C47.5753 58.7661 37.3169 54.5323 28.363 45.5785C19.4061 36.6154 15.1692 26.3692 18.8461 22.6923C21.0923 20.4431 25.7723 21.1538 31.1538 24.1354C32.4123 24.8308 35.9907 23.3354 37.0184 22.0184C31.1415 18.0092 25.3353 15.7969 20.6738 15.7692H20.6707ZM43.0769 24.6154C40.3476 24.6154 38.0184 26.3846 37.2122 28.8461L28.9415 29.8092C28.5729 29.7927 28.2052 29.8564 27.8637 29.996C27.5222 30.1355 27.2151 30.3476 26.9636 30.6175C26.7121 30.8874 26.5222 31.2086 26.4071 31.5591C26.2919 31.9096 26.2543 32.2809 26.2967 32.6473C26.3391 33.0138 26.4606 33.3667 26.6528 33.6816C26.845 33.9964 27.1032 34.2659 27.4097 34.4711C27.7163 34.6764 28.0637 34.8127 28.428 34.8705C28.7924 34.9284 29.1649 34.9064 29.5199 34.8061L37.7876 33.9446C38.3107 34.8185 39.0276 35.5354 39.9046 36.0584L39.0399 44.3261C38.9397 44.6812 38.9177 45.0537 38.9755 45.4181C39.0334 45.7824 39.1697 46.1298 39.3749 46.4363C39.5802 46.7429 39.8496 47.0011 40.1645 47.1933C40.4794 47.3855 40.8323 47.507 41.1988 47.5494C41.5652 47.5918 41.9365 47.5541 42.287 47.439C42.6374 47.3238 42.9587 47.134 43.2286 46.8825C43.4985 46.631 43.7105 46.3238 43.8501 45.9824C43.9897 45.6409 44.0534 45.2731 44.0369 44.9046L44.9999 36.6338C46.2326 36.2259 47.3051 35.4394 48.0647 34.3864C48.8243 33.3334 49.2324 32.0676 49.2307 30.7692C49.2307 29.1371 48.5824 27.5719 47.4283 26.4178C46.2742 25.2637 44.709 24.6154 43.0769 24.6154ZM21.7292 67.8861C16.5199 70.2708 12.9846 74.8 12.9846 80H48.9446C48.9446 76.7877 46.6123 73.0369 43.7538 71.4431C41.7969 71.7969 39.7015 72.0185 37.5999 72.0185C31.9846 72.0185 26.6369 70.6246 21.7353 67.8861H21.7292Z" fill="#D31026"/>
</g>
<defs>
<clipPath id="clip0">
<rect width="80" height="80" fill="white"/>
</clipPath>
</defs>
</svg>
