<svg width="44" height="45" viewBox="0 0 44 45" fill="none" xmlns="http://www.w3.org/2000/svg">
<path d="M21.8245 0.470581C24.8049 0.470581 27.6284 1.03921 30.2951 2.17646C32.9618 3.31372 35.2755 4.86274 37.2363 6.82352C39.1971 8.78431 40.7461 11.098 41.8833 13.7647C43.0206 16.4314 43.5892 19.2745 43.5892 22.2941C43.5892 25.3137 43.0206 28.1372 41.8833 30.7647C40.7461 33.3922 39.1971 35.7059 37.2363 37.7059C35.2755 39.7059 32.9618 41.2745 30.2951 42.4118C27.6284 43.549 24.7951 44.1176 21.7951 44.1176C18.7951 44.1176 15.9814 43.549 13.3539 42.4118C10.7265 41.2745 8.41274 39.7059 6.41274 37.7059C4.41274 35.7059 2.84411 33.3922 1.70686 30.7647C0.569604 28.1372 0.000976562 25.3137 0.000976562 22.2941C0.000976562 19.2745 0.569604 16.4314 1.70686 13.7647C2.84411 11.098 4.41274 8.78431 6.41274 6.82352C8.41274 4.86274 10.7265 3.31372 13.3539 2.17646C15.9814 1.03921 18.8049 0.470581 21.8245 0.470581ZM5.47156 22.2941C5.47156 24.2157 5.78529 26.0392 6.41274 27.7647C7.04019 29.4902 7.92254 31.0588 9.0598 32.4706C10.1971 33.8823 11.5304 35.0784 13.0598 36.0588C14.5892 37.0392 16.2559 37.7451 18.0598 38.1765C17.55 37.4314 17.3735 36.7451 17.5304 36.1176C17.7265 35.3333 18.2167 34.549 19.001 33.7647C19.7853 32.9804 20.648 32.402 21.5892 32.0294C22.5304 31.6569 23.3343 31.1961 24.001 30.6471C24.6676 30.098 25.001 29.6471 25.001 29.2941C25.001 28.9412 24.55 28.4706 23.648 27.8823C22.7461 27.2941 21.6088 26.8627 20.2363 26.5882C19.5696 26.3922 18.9422 26.1176 18.3539 25.7647C17.7657 25.4118 17.2167 25.0196 16.7069 24.5882C16.1971 24.1569 15.7853 23.7059 15.4716 23.2353C15.1578 22.7647 14.9225 22.2941 14.7657 21.8235C14.5696 20.8823 14.2167 20.2745 13.7069 20C13.1971 19.7255 12.6578 19.8725 12.0892 20.4412C11.5206 21.0098 10.9814 21.4902 10.4716 21.8823C9.96176 22.2745 9.58921 22.4706 9.35392 22.4706C9.11862 22.4706 9.15784 22.0784 9.47156 21.2941C9.78529 20.5098 10.1971 19.549 10.7069 18.4118C11.2167 17.2745 11.6284 16.2353 11.9422 15.2941C12.2559 14.3529 12.2951 13.8039 12.0598 13.6471C11.8245 13.4902 11.4127 13.3137 10.8245 13.1176C10.2363 12.9216 9.51078 12.8627 8.64803 12.9412C8.53039 12.9412 8.45196 12.9216 8.41274 12.8823C7.47156 14.2549 6.74607 15.7255 6.23627 17.2941C5.72647 18.8627 5.47156 20.5294 5.47156 22.2941ZM35.5892 31.1176C36.3735 29.8627 37.001 28.4902 37.4716 27C37.9422 25.5098 38.1774 23.9412 38.1774 22.2941C38.1774 20.8823 38.001 19.5098 37.648 18.1765C37.2951 16.8431 36.8049 15.6078 36.1774 14.4706C36.1382 14.5882 36.0402 14.7647 35.8833 15C35.5304 15.549 35.0206 16.2157 34.3539 17C33.6872 17.7843 33.0696 18.4608 32.501 19.0294C31.9323 19.598 31.5108 19.8823 31.2363 19.8823C30.9618 19.8823 30.9225 19.6078 31.1186 19.0588C31.3147 18.5098 31.1578 18.098 30.648 17.8235C30.1382 17.549 29.3931 17.5098 28.4127 17.7059C27.4323 17.902 26.5108 18.1961 25.648 18.5882C24.7853 18.9804 24.1186 19.3725 23.648 19.7647C23.1774 20.1569 22.9814 20.6078 23.0598 21.1176C23.1382 21.6274 23.3343 22.0784 23.648 22.4706C23.9618 22.8627 24.4912 23.0588 25.2363 23.0588C25.9814 23.0588 26.5892 22.8627 27.0598 22.4706C27.5304 22.0784 28.0794 21.8823 28.7069 21.8823C29.3343 21.8823 29.6872 22.0784 29.7657 22.4706C29.8441 22.8627 29.8833 23.5098 29.8833 24.4118C29.8833 25.3137 29.6284 26.2549 29.1186 27.2353C28.7265 28.1765 28.6676 28.9216 28.9422 29.4706C29.2167 30.0196 29.7069 30.1961 30.4127 30C31.1186 29.8039 31.9618 29.8039 32.9422 30C33.9225 30.1961 34.8049 30.5686 35.5892 31.1176Z" fill="#F2EDDA"/>
</svg>
