<svg width="80" height="80" viewBox="0 0 80 80" fill="none" xmlns="http://www.w3.org/2000/svg">
<g clip-path="url(#clip0)">
<path d="M42.575 5.095C41.7181 5.03174 40.8592 5.00005 40 5V0C40.9827 0.000479138 41.965 0.0371707 42.945 0.11L42.575 5.095ZM52.595 7.345C50.9922 6.72652 49.3461 6.22684 47.67 5.85L48.765 0.97C50.68 1.4 52.565 1.97 54.395 2.68L52.595 7.345ZM59.445 10.895C58.7301 10.4182 57.998 9.96794 57.25 9.545L59.715 5.195C61.4245 6.16368 63.0606 7.25662 64.61 8.465L61.535 12.41C60.8571 11.8812 60.16 11.3775 59.445 10.9V10.895ZM68.615 19.845C67.626 18.4399 66.5347 17.1096 65.35 15.865L68.97 12.415C70.32 13.84 71.57 15.365 72.705 16.965L68.615 19.845ZM72.335 26.605C72.0068 25.8123 71.6499 25.0318 71.265 24.265L75.73 22.015C76.613 23.7704 77.365 25.5887 77.98 27.455L73.23 29.02C72.9613 28.2043 72.6628 27.3988 72.335 26.605ZM74.985 39.14C74.9446 37.4217 74.7774 35.7087 74.485 34.015L79.41 33.165C79.745 35.095 79.94 37.055 79.99 39.015L74.99 39.14H74.985ZM74.33 46.83C74.495 45.98 74.63 45.135 74.735 44.28L79.7 44.895C79.4598 46.8458 79.0755 48.776 78.55 50.67L73.73 49.335C73.96 48.51 74.16 47.675 74.33 46.83ZM69.57 58.725C70.49 57.275 71.3 55.755 72 54.185L76.57 56.21C75.77 58.01 74.845 59.74 73.795 61.4L69.57 58.725ZM64.75 64.75C65.36 64.14 65.945 63.51 66.5 62.86L70.29 66.125C69.6482 66.8692 68.9794 67.5896 68.285 68.285L64.75 64.75Z" fill="#D31026"/>
<path d="M40 5C34.2444 5.00042 28.5777 6.42023 23.5019 9.13369C18.4261 11.8472 14.0977 15.7705 10.9003 20.5562C7.70284 25.342 5.73496 30.8424 5.17097 36.5703C4.60697 42.2982 5.46425 48.0768 7.66688 53.3943C9.86951 58.7117 13.3495 63.4039 17.7986 67.0553C22.2477 70.7066 27.5287 73.2044 33.1737 74.3273C38.8187 75.4503 44.6535 75.1638 50.1613 73.4933C55.6691 71.8227 60.68 68.8196 64.75 64.75L68.285 68.285C63.6337 72.9389 57.9063 76.3737 51.6102 78.285C45.3141 80.1963 38.6438 80.5252 32.1903 79.2424C25.7368 77.9597 19.6993 75.1049 14.6127 70.9311C9.5262 66.7573 5.54767 61.3934 3.02967 55.3144C0.511662 49.2355 -0.468074 42.6294 0.177264 36.0813C0.822603 29.5333 3.07309 23.2455 6.72933 17.7751C10.3856 12.3047 15.3347 7.82055 21.1381 4.72001C26.9416 1.61948 33.4202 -0.00174366 40 1.40729e-06V5Z" fill="#D31026"/>
<path d="M37.5 15C38.163 15 38.7989 15.2634 39.2678 15.7322C39.7366 16.2011 40 16.837 40 17.5V43.55L56.24 52.83C56.799 53.1672 57.2039 53.7097 57.3682 54.3414C57.5325 54.9732 57.4431 55.6442 57.1192 56.211C56.7954 56.7778 56.2626 57.1954 55.6349 57.3746C55.0072 57.5538 54.3343 57.4804 53.76 57.17L36.26 47.17C35.8774 46.9514 35.5593 46.6356 35.338 46.2545C35.1168 45.8735 35.0001 45.4407 35 45V17.5C35 16.837 35.2634 16.2011 35.7322 15.7322C36.2011 15.2634 36.837 15 37.5 15Z" fill="#D31026"/>
</g>
<defs>
<clipPath id="clip0">
<rect width="80" height="80" fill="white"/>
</clipPath>
</defs>
</svg>
