<svg width="120" height="85" viewBox="0 0 120 85" fill="none" xmlns="http://www.w3.org/2000/svg">
<path d="M79.8189 43C76.6501 43 73.6689 41.3125 72.0564 38.6125L60.0001 18.625L47.9626 38.6125C46.3314 41.3312 43.3501 43.0187 40.1814 43.0187C39.3376 43.0187 38.4939 42.9062 37.6876 42.6625L12.0001 35.3125V68.6875C12.0001 71.4437 13.8751 73.8437 16.5376 74.5L57.0751 84.6437C58.9876 85.1125 60.9939 85.1125 62.8876 84.6437L103.463 74.5C106.125 73.825 108 71.425 108 68.6875V35.3125L82.3126 42.6437C81.5064 42.8875 80.6626 43 79.8189 43ZM119.681 21.9625L110.025 2.68747C109.444 1.52497 108.188 0.849973 106.894 1.01872L60.0001 6.99997L77.1939 35.5187C77.9064 36.7 79.3314 37.2625 80.6626 36.8875L117.769 26.2937C119.625 25.75 120.525 23.6875 119.681 21.9625ZM9.97512 2.68747L0.318874 21.9625C-0.543626 23.6875 0.375124 25.75 2.21262 26.275L39.3189 36.8687C40.6501 37.2437 42.0751 36.6812 42.7876 35.5L60.0001 6.99997L13.0876 1.01872C11.7939 0.868723 10.5564 1.52497 9.97512 2.68747Z" fill="#F2EDDA"/>
</svg>
