<svg width="120" height="96" viewBox="0 0 120 96" fill="none" xmlns="http://www.w3.org/2000/svg">
<path d="M117 66H114V45.7312C114 43.35 113.044 41.0625 111.356 39.375L92.625 20.6437C90.9375 18.9562 88.65 18 86.2688 18H78V9C78 4.03125 73.9688 0 69 0H9C4.03125 0 0 4.03125 0 9V69C0 73.9688 4.03125 78 9 78H12C12 87.9375 20.0625 96 30 96C39.9375 96 48 87.9375 48 78H72C72 87.9375 80.0625 96 90 96C99.9375 96 108 87.9375 108 78H117C118.65 78 120 76.65 120 75V69C120 67.35 118.65 66 117 66ZM30 87C25.0312 87 21 82.9688 21 78C21 73.0312 25.0312 69 30 69C34.9688 69 39 73.0312 39 78C39 82.9688 34.9688 87 30 87ZM90 87C85.0312 87 81 82.9688 81 78C81 73.0312 85.0312 69 90 69C94.9688 69 99 73.0312 99 78C99 82.9688 94.9688 87 90 87ZM105 48H78V27H86.2688L105 45.7312V48Z" fill="#F2EDDA"/>
</svg>
