<svg width="259" height="80" viewBox="0 0 259 80" fill="none" xmlns="http://www.w3.org/2000/svg">
<path d="M31.7539 75H33.1939L38.4259 65.484V65.1H31.8919V66.174H36.6259L31.7539 75ZM42.7237 75.192C43.3757 75.192 43.9417 75.066 44.4217 74.814C44.9017 74.562 45.2717 74.218 45.5317 73.782C45.7957 73.342 45.9277 72.846 45.9277 72.294C45.9277 71.69 45.7757 71.174 45.4717 70.746C45.1717 70.318 44.7897 70.016 44.3257 69.84C44.7457 69.648 45.0817 69.354 45.3337 68.958C45.5857 68.558 45.7117 68.116 45.7117 67.632C45.7117 67.12 45.5857 66.66 45.3337 66.252C45.0817 65.844 44.7377 65.52 44.3017 65.28C43.8657 65.04 43.3737 64.92 42.8257 64.92C42.3337 64.92 41.8797 65.022 41.4637 65.226C41.0517 65.426 40.7117 65.706 40.4437 66.066C40.1757 66.422 40.0097 66.832 39.9457 67.296L40.9477 67.692C40.9677 67.36 41.0637 67.062 41.2357 66.798C41.4077 66.534 41.6297 66.324 41.9017 66.168C42.1777 66.012 42.4797 65.934 42.8077 65.934C43.1317 65.934 43.4277 66.01 43.6957 66.162C43.9637 66.314 44.1777 66.52 44.3377 66.78C44.4977 67.04 44.5777 67.332 44.5777 67.656C44.5777 67.98 44.4957 68.282 44.3317 68.562C44.1677 68.838 43.9457 69.06 43.6657 69.228C43.3857 69.396 43.0717 69.48 42.7237 69.48H42.3577V70.35C42.4657 70.314 42.5977 70.296 42.7537 70.296C43.1097 70.296 43.4337 70.386 43.7257 70.566C44.0177 70.742 44.2497 70.982 44.4217 71.286C44.5977 71.59 44.6857 71.932 44.6857 72.312C44.6857 72.844 44.5077 73.276 44.1517 73.608C43.7957 73.936 43.3197 74.1 42.7237 74.1C42.1037 74.1 41.5957 73.924 41.1997 73.572C40.8037 73.22 40.5957 72.76 40.5757 72.192L39.4237 72.66C39.4997 73.164 39.6857 73.606 39.9817 73.986C40.2817 74.366 40.6657 74.662 41.1337 74.874C41.6057 75.086 42.1357 75.192 42.7237 75.192ZM51.0324 75.186C51.6844 75.186 52.2804 75.058 52.8204 74.802C53.3604 74.546 53.7924 74.17 54.1164 73.674C54.4404 73.174 54.6024 72.562 54.6024 71.838C54.6024 71.266 54.4904 70.76 54.2664 70.32C54.0464 69.876 53.7404 69.516 53.3484 69.24C52.9564 68.96 52.5004 68.784 51.9804 68.712C51.1284 68.536 50.3004 68.646 49.4964 69.042L49.9404 66.174H53.9664V65.1H48.9144L48.0924 70.362C48.7964 69.702 49.6064 69.372 50.5224 69.372C51.0824 69.372 51.5784 69.474 52.0104 69.678C52.4424 69.882 52.7804 70.174 53.0244 70.554C53.2724 70.93 53.3964 71.378 53.3964 71.898C53.3964 72.586 53.1804 73.136 52.7484 73.548C52.3164 73.96 51.7424 74.166 51.0264 74.166C50.4304 74.166 49.9064 74.022 49.4544 73.734C49.0064 73.446 48.6964 73.056 48.5244 72.564L47.5524 73.038C47.7204 73.49 47.9764 73.876 48.3204 74.196C48.6644 74.516 49.0684 74.762 49.5324 74.934C50.0004 75.102 50.5004 75.186 51.0324 75.186ZM56.6948 72.024H60.5588V71.022H56.6948V72.024ZM63.545 75H64.763V65.1H62.447V66.3H63.545V75ZM67.9864 75H69.2044V65.1H66.8884V66.3H67.9864V75ZM74.5518 75.192C75.2038 75.192 75.7698 75.066 76.2498 74.814C76.7298 74.562 77.0998 74.218 77.3598 73.782C77.6238 73.342 77.7558 72.846 77.7558 72.294C77.7558 71.69 77.6038 71.174 77.2998 70.746C76.9998 70.318 76.6178 70.016 76.1538 69.84C76.5738 69.648 76.9098 69.354 77.1618 68.958C77.4138 68.558 77.5398 68.116 77.5398 67.632C77.5398 67.12 77.4138 66.66 77.1618 66.252C76.9098 65.844 76.5658 65.52 76.1298 65.28C75.6938 65.04 75.2018 64.92 74.6538 64.92C74.1618 64.92 73.7078 65.022 73.2918 65.226C72.8798 65.426 72.5398 65.706 72.2718 66.066C72.0038 66.422 71.8378 66.832 71.7738 67.296L72.7758 67.692C72.7958 67.36 72.8918 67.062 73.0638 66.798C73.2358 66.534 73.4578 66.324 73.7298 66.168C74.0058 66.012 74.3078 65.934 74.6358 65.934C74.9598 65.934 75.2558 66.01 75.5238 66.162C75.7918 66.314 76.0058 66.52 76.1658 66.78C76.3258 67.04 76.4058 67.332 76.4058 67.656C76.4058 67.98 76.3238 68.282 76.1598 68.562C75.9958 68.838 75.7738 69.06 75.4938 69.228C75.2138 69.396 74.8998 69.48 74.5518 69.48H74.1858V70.35C74.2938 70.314 74.4258 70.296 74.5818 70.296C74.9378 70.296 75.2618 70.386 75.5538 70.566C75.8458 70.742 76.0778 70.982 76.2498 71.286C76.4258 71.59 76.5138 71.932 76.5138 72.312C76.5138 72.844 76.3358 73.276 75.9798 73.608C75.6238 73.936 75.1478 74.1 74.5518 74.1C73.9318 74.1 73.4238 73.924 73.0278 73.572C72.6318 73.22 72.4238 72.76 72.4038 72.192L71.2518 72.66C71.3278 73.164 71.5138 73.606 71.8098 73.986C72.1098 74.366 72.4938 74.662 72.9618 74.874C73.4338 75.086 73.9638 75.192 74.5518 75.192ZM79.9566 72.024H83.8206V71.022H79.9566V72.024ZM85.4023 75H86.8423L92.0743 65.484V65.1H85.5403V66.174H90.2743L85.4023 75ZM92.9097 75H100.086V73.884H95.2677C96.1637 73.196 96.9097 72.586 97.5057 72.054C98.1017 71.522 98.5757 71.04 98.9277 70.608C99.2797 70.172 99.5297 69.762 99.6777 69.378C99.8297 68.99 99.9057 68.596 99.9057 68.196C99.9057 67.568 99.7557 67.008 99.4557 66.516C99.1557 66.02 98.7477 65.63 98.2317 65.346C97.7157 65.058 97.1357 64.914 96.4917 64.914C95.8917 64.914 95.3457 65.044 94.8537 65.304C94.3617 65.564 93.9557 65.924 93.6357 66.384C93.3197 66.84 93.1177 67.366 93.0297 67.962L94.0917 68.382C94.1597 67.914 94.3017 67.504 94.5177 67.152C94.7377 66.8 95.0117 66.526 95.3397 66.33C95.6677 66.134 96.0297 66.036 96.4257 66.036C96.8297 66.036 97.1937 66.134 97.5177 66.33C97.8457 66.526 98.1057 66.79 98.2977 67.122C98.4897 67.45 98.5857 67.816 98.5857 68.22C98.5857 68.56 98.4937 68.916 98.3097 69.288C98.1297 69.656 97.8237 70.074 97.3917 70.542C96.9637 71.006 96.3837 71.552 95.6517 72.18C94.9237 72.808 94.0097 73.55 92.9097 74.406V75ZM105.937 75.192C106.745 75.192 107.451 74.978 108.055 74.55C108.663 74.118 109.135 73.516 109.471 72.744C109.811 71.972 109.981 71.076 109.981 70.056C109.981 69.032 109.811 68.136 109.471 67.368C109.135 66.596 108.663 65.996 108.055 65.568C107.451 65.136 106.745 64.92 105.937 64.92C105.129 64.92 104.421 65.136 103.813 65.568C103.205 65.996 102.731 66.596 102.391 67.368C102.055 68.136 101.887 69.032 101.887 70.056C101.887 71.076 102.055 71.972 102.391 72.744C102.731 73.516 103.205 74.118 103.813 74.55C104.421 74.978 105.129 75.192 105.937 75.192ZM105.937 74.106C105.381 74.106 104.895 73.94 104.479 73.608C104.067 73.276 103.747 72.806 103.519 72.198C103.291 71.59 103.177 70.876 103.177 70.056C103.177 69.232 103.291 68.518 103.519 67.914C103.747 67.306 104.067 66.836 104.479 66.504C104.895 66.172 105.381 66.006 105.937 66.006C106.493 66.006 106.977 66.172 107.389 66.504C107.801 66.836 108.121 67.306 108.349 67.914C108.577 68.518 108.691 69.232 108.691 70.056C108.691 70.876 108.577 71.59 108.349 72.198C108.121 72.806 107.801 73.276 107.389 73.608C106.977 73.94 106.493 74.106 105.937 74.106ZM115.053 75.192C115.677 75.192 116.235 75.068 116.727 74.82C117.223 74.568 117.613 74.228 117.897 73.8C118.185 73.368 118.329 72.88 118.329 72.336C118.329 71.744 118.163 71.214 117.831 70.746C117.499 70.278 117.053 69.936 116.493 69.72C116.933 69.508 117.283 69.202 117.543 68.802C117.807 68.398 117.939 67.95 117.939 67.458C117.939 66.946 117.803 66.5 117.531 66.12C117.259 65.74 116.903 65.446 116.463 65.238C116.023 65.026 115.553 64.92 115.053 64.92C114.513 64.92 114.025 65.032 113.589 65.256C113.157 65.48 112.813 65.784 112.557 66.168C112.301 66.548 112.173 66.98 112.173 67.464C112.173 67.944 112.301 68.388 112.557 68.796C112.813 69.2 113.165 69.508 113.613 69.72C113.061 69.932 112.617 70.272 112.281 70.74C111.949 71.208 111.783 71.738 111.783 72.33C111.783 72.878 111.925 73.368 112.209 73.8C112.497 74.232 112.887 74.572 113.379 74.82C113.875 75.068 114.433 75.192 115.053 75.192ZM115.053 69.252C114.729 69.252 114.437 69.18 114.177 69.036C113.921 68.888 113.719 68.688 113.571 68.436C113.423 68.18 113.349 67.89 113.349 67.566C113.349 67.242 113.423 66.952 113.571 66.696C113.723 66.436 113.927 66.232 114.183 66.084C114.439 65.936 114.729 65.862 115.053 65.862C115.381 65.862 115.673 65.936 115.929 66.084C116.185 66.232 116.387 66.436 116.535 66.696C116.687 66.952 116.763 67.242 116.763 67.566C116.763 67.89 116.689 68.18 116.541 68.436C116.393 68.688 116.189 68.888 115.929 69.036C115.673 69.18 115.381 69.252 115.053 69.252ZM115.053 74.124C114.673 74.124 114.335 74.042 114.039 73.878C113.747 73.71 113.519 73.482 113.355 73.194C113.191 72.906 113.109 72.58 113.109 72.216C113.109 71.844 113.193 71.514 113.361 71.226C113.533 70.938 113.765 70.712 114.057 70.548C114.353 70.384 114.685 70.302 115.053 70.302C115.429 70.302 115.763 70.386 116.055 70.554C116.347 70.718 116.577 70.944 116.745 71.232C116.917 71.52 117.003 71.85 117.003 72.222C117.003 72.582 116.921 72.906 116.757 73.194C116.593 73.482 116.363 73.71 116.067 73.878C115.775 74.042 115.437 74.124 115.053 74.124ZM125.617 76.44H126.583L131.527 64.68H130.561L125.617 76.44ZM138.512 75H139.952L145.184 65.484V65.1H138.65V66.174H143.384L138.512 75ZM149.481 75.192C150.133 75.192 150.699 75.066 151.179 74.814C151.659 74.562 152.029 74.218 152.289 73.782C152.553 73.342 152.685 72.846 152.685 72.294C152.685 71.69 152.533 71.174 152.229 70.746C151.929 70.318 151.547 70.016 151.083 69.84C151.503 69.648 151.839 69.354 152.091 68.958C152.343 68.558 152.469 68.116 152.469 67.632C152.469 67.12 152.343 66.66 152.091 66.252C151.839 65.844 151.495 65.52 151.059 65.28C150.623 65.04 150.131 64.92 149.583 64.92C149.091 64.92 148.637 65.022 148.221 65.226C147.809 65.426 147.469 65.706 147.201 66.066C146.933 66.422 146.767 66.832 146.703 67.296L147.705 67.692C147.725 67.36 147.821 67.062 147.993 66.798C148.165 66.534 148.387 66.324 148.659 66.168C148.935 66.012 149.237 65.934 149.565 65.934C149.889 65.934 150.185 66.01 150.453 66.162C150.721 66.314 150.935 66.52 151.095 66.78C151.255 67.04 151.335 67.332 151.335 67.656C151.335 67.98 151.253 68.282 151.089 68.562C150.925 68.838 150.703 69.06 150.423 69.228C150.143 69.396 149.829 69.48 149.481 69.48H149.115V70.35C149.223 70.314 149.355 70.296 149.511 70.296C149.867 70.296 150.191 70.386 150.483 70.566C150.775 70.742 151.007 70.982 151.179 71.286C151.355 71.59 151.443 71.932 151.443 72.312C151.443 72.844 151.265 73.276 150.909 73.608C150.553 73.936 150.077 74.1 149.481 74.1C148.861 74.1 148.353 73.924 147.957 73.572C147.561 73.22 147.353 72.76 147.333 72.192L146.181 72.66C146.257 73.164 146.443 73.606 146.739 73.986C147.039 74.366 147.423 74.662 147.891 74.874C148.363 75.086 148.893 75.192 149.481 75.192ZM157.79 75.186C158.442 75.186 159.038 75.058 159.578 74.802C160.118 74.546 160.55 74.17 160.874 73.674C161.198 73.174 161.36 72.562 161.36 71.838C161.36 71.266 161.248 70.76 161.024 70.32C160.804 69.876 160.498 69.516 160.106 69.24C159.714 68.96 159.258 68.784 158.738 68.712C157.886 68.536 157.058 68.646 156.254 69.042L156.698 66.174H160.724V65.1H155.672L154.85 70.362C155.554 69.702 156.364 69.372 157.28 69.372C157.84 69.372 158.336 69.474 158.768 69.678C159.2 69.882 159.538 70.174 159.782 70.554C160.03 70.93 160.154 71.378 160.154 71.898C160.154 72.586 159.938 73.136 159.506 73.548C159.074 73.96 158.5 74.166 157.784 74.166C157.188 74.166 156.664 74.022 156.212 73.734C155.764 73.446 155.454 73.056 155.282 72.564L154.31 73.038C154.478 73.49 154.734 73.876 155.078 74.196C155.422 74.516 155.826 74.762 156.29 74.934C156.758 75.102 157.258 75.186 157.79 75.186ZM163.453 72.024H167.317V71.022H163.453V72.024ZM170.303 75H171.521V65.1H169.205V66.3H170.303V75ZM177.96 75.192C178.768 75.192 179.474 74.978 180.078 74.55C180.686 74.118 181.158 73.516 181.494 72.744C181.834 71.972 182.004 71.076 182.004 70.056C182.004 69.032 181.834 68.136 181.494 67.368C181.158 66.596 180.686 65.996 180.078 65.568C179.474 65.136 178.768 64.92 177.96 64.92C177.152 64.92 176.444 65.136 175.836 65.568C175.228 65.996 174.754 66.596 174.414 67.368C174.078 68.136 173.91 69.032 173.91 70.056C173.91 71.076 174.078 71.972 174.414 72.744C174.754 73.516 175.228 74.118 175.836 74.55C176.444 74.978 177.152 75.192 177.96 75.192ZM177.96 74.106C177.404 74.106 176.918 73.94 176.502 73.608C176.09 73.276 175.77 72.806 175.542 72.198C175.314 71.59 175.2 70.876 175.2 70.056C175.2 69.232 175.314 68.518 175.542 67.914C175.77 67.306 176.09 66.836 176.502 66.504C176.918 66.172 177.404 66.006 177.96 66.006C178.516 66.006 179 66.172 179.412 66.504C179.824 66.836 180.144 67.306 180.372 67.914C180.6 68.518 180.714 69.232 180.714 70.056C180.714 70.876 180.6 71.59 180.372 72.198C180.144 72.806 179.824 73.276 179.412 73.608C179 73.94 178.516 74.106 177.96 74.106ZM183.566 75H190.742V73.884H185.924C186.82 73.196 187.566 72.586 188.162 72.054C188.758 71.522 189.232 71.04 189.584 70.608C189.936 70.172 190.186 69.762 190.334 69.378C190.486 68.99 190.562 68.596 190.562 68.196C190.562 67.568 190.412 67.008 190.112 66.516C189.812 66.02 189.404 65.63 188.888 65.346C188.372 65.058 187.792 64.914 187.148 64.914C186.548 64.914 186.002 65.044 185.51 65.304C185.018 65.564 184.612 65.924 184.292 66.384C183.976 66.84 183.774 67.366 183.686 67.962L184.748 68.382C184.816 67.914 184.958 67.504 185.174 67.152C185.394 66.8 185.668 66.526 185.996 66.33C186.324 66.134 186.686 66.036 187.082 66.036C187.486 66.036 187.85 66.134 188.174 66.33C188.502 66.526 188.762 66.79 188.954 67.122C189.146 67.45 189.242 67.816 189.242 68.22C189.242 68.56 189.15 68.916 188.966 69.288C188.786 69.656 188.48 70.074 188.048 70.542C187.62 71.006 187.04 71.552 186.308 72.18C185.58 72.808 184.666 73.55 183.566 74.406V75ZM192.855 72.024H196.719V71.022H192.855V72.024ZM200.083 75H201.565L204.619 71.334C204.999 70.874 205.295 70.416 205.507 69.96C205.723 69.5 205.829 68.962 205.825 68.346C205.825 67.698 205.671 67.116 205.363 66.6C205.059 66.08 204.635 65.67 204.091 65.37C203.547 65.066 202.917 64.914 202.201 64.914C201.493 64.914 200.875 65.064 200.347 65.364C199.819 65.66 199.409 66.064 199.117 66.576C198.829 67.084 198.685 67.656 198.685 68.292C198.685 68.952 198.835 69.54 199.135 70.056C199.435 70.568 199.833 70.972 200.329 71.268C200.829 71.56 201.373 71.706 201.961 71.706C202.417 71.706 202.815 71.588 203.155 71.352L200.083 75ZM202.255 70.632C201.811 70.632 201.411 70.528 201.055 70.32C200.703 70.112 200.423 69.83 200.215 69.474C200.011 69.118 199.909 68.718 199.909 68.274C199.909 67.83 200.011 67.434 200.215 67.086C200.419 66.738 200.697 66.464 201.049 66.264C201.405 66.064 201.807 65.964 202.255 65.964C202.703 65.964 203.099 66.064 203.443 66.264C203.791 66.46 204.063 66.732 204.259 67.08C204.459 67.428 204.559 67.826 204.559 68.274C204.559 68.706 204.455 69.1 204.247 69.456C204.039 69.812 203.761 70.098 203.413 70.314C203.065 70.526 202.679 70.632 202.255 70.632ZM207.172 75H208.612L213.844 65.484V65.1H207.31V66.174H212.044L207.172 75ZM216.396 75H217.878L220.932 71.334C221.312 70.874 221.608 70.416 221.82 69.96C222.036 69.5 222.142 68.962 222.138 68.346C222.138 67.698 221.984 67.116 221.676 66.6C221.372 66.08 220.948 65.67 220.404 65.37C219.86 65.066 219.23 64.914 218.514 64.914C217.806 64.914 217.188 65.064 216.66 65.364C216.132 65.66 215.722 66.064 215.43 66.576C215.142 67.084 214.998 67.656 214.998 68.292C214.998 68.952 215.148 69.54 215.448 70.056C215.748 70.568 216.146 70.972 216.642 71.268C217.142 71.56 217.686 71.706 218.274 71.706C218.73 71.706 219.128 71.588 219.468 71.352L216.396 75ZM218.568 70.632C218.124 70.632 217.724 70.528 217.368 70.32C217.016 70.112 216.736 69.83 216.528 69.474C216.324 69.118 216.222 68.718 216.222 68.274C216.222 67.83 216.324 67.434 216.528 67.086C216.732 66.738 217.01 66.464 217.362 66.264C217.718 66.064 218.12 65.964 218.568 65.964C219.016 65.964 219.412 66.064 219.756 66.264C220.104 66.46 220.376 66.732 220.572 67.08C220.772 67.428 220.872 67.826 220.872 68.274C220.872 68.706 220.768 69.1 220.56 69.456C220.352 69.812 220.074 70.098 219.726 70.314C219.378 70.526 218.992 70.632 218.568 70.632ZM227.87 75.192C228.678 75.192 229.384 74.978 229.988 74.55C230.596 74.118 231.068 73.516 231.404 72.744C231.744 71.972 231.914 71.076 231.914 70.056C231.914 69.032 231.744 68.136 231.404 67.368C231.068 66.596 230.596 65.996 229.988 65.568C229.384 65.136 228.678 64.92 227.87 64.92C227.062 64.92 226.354 65.136 225.746 65.568C225.138 65.996 224.664 66.596 224.324 67.368C223.988 68.136 223.82 69.032 223.82 70.056C223.82 71.076 223.988 71.972 224.324 72.744C224.664 73.516 225.138 74.118 225.746 74.55C226.354 74.978 227.062 75.192 227.87 75.192ZM227.87 74.106C227.314 74.106 226.828 73.94 226.412 73.608C226 73.276 225.68 72.806 225.452 72.198C225.224 71.59 225.11 70.876 225.11 70.056C225.11 69.232 225.224 68.518 225.452 67.914C225.68 67.306 226 66.836 226.412 66.504C226.828 66.172 227.314 66.006 227.87 66.006C228.426 66.006 228.91 66.172 229.322 66.504C229.734 66.836 230.054 67.306 230.282 67.914C230.51 68.518 230.624 69.232 230.624 70.056C230.624 70.876 230.51 71.59 230.282 72.198C230.054 72.806 229.734 73.276 229.322 73.608C228.91 73.94 228.426 74.106 227.87 74.106Z" fill="#F2EDDA"/>
<path d="M20 64.55C19.9888 64.1186 19.9554 63.688 19.9 63.26C19.8253 62.8851 19.7009 62.5219 19.53 62.18C19.3513 61.8091 19.1112 61.471 18.82 61.18C18.5261 60.8922 18.1886 60.6526 17.82 60.47C17.4776 60.3024 17.1144 60.1814 16.74 60.11C16.3161 60.0465 15.8886 60.0098 15.46 60H4.55C4.11857 60.0112 3.68801 60.0446 3.26 60.1C2.88512 60.1747 2.52191 60.2991 2.18 60.47C1.8091 60.6487 1.47103 60.8888 1.18 61.18C0.892204 61.4739 0.652591 61.8114 0.47 62.18C0.302444 62.5224 0.181373 62.8856 0.11 63.26C0.0464994 63.6839 0.0097601 64.1114 0 64.54V75.45C0.0112364 75.8814 0.0446136 76.312 0.0999999 76.74C0.174668 77.1149 0.299103 77.4781 0.47 77.82C0.648737 78.1909 0.888773 78.529 1.18 78.82C1.47391 79.1078 1.81139 79.3474 2.18 79.53C2.52236 79.6976 2.88558 79.8186 3.26 79.89C3.68393 79.9535 4.11145 79.9902 4.54 80H15.45C15.8814 79.9888 16.312 79.9554 16.74 79.9C17.1149 79.8253 17.4781 79.7009 17.82 79.53C18.1909 79.3513 18.529 79.1112 18.82 78.82C19.1078 78.5261 19.3474 78.1886 19.53 77.82C19.6976 77.4776 19.8186 77.1144 19.89 76.74C19.9535 76.3161 19.9902 75.8886 20 75.46V65.08V64.55ZM10.23 77C9.02906 76.9941 7.84913 76.6845 6.8 76.1L3 77.1L4 73.38C3.35511 72.2965 3.00999 71.0609 3 69.8C3.00398 68.3829 3.4272 66.9987 4.21636 65.8217C5.00552 64.6447 6.12532 63.7275 7.43473 63.1857C8.74414 62.6439 10.1846 62.5017 11.5747 62.7769C12.9648 63.0522 14.2423 63.7327 15.2464 64.7326C16.2505 65.7325 16.9363 67.0073 17.2173 68.3962C17.4984 69.7851 17.3622 71.2262 16.8258 72.5378C16.2894 73.8495 15.3769 74.9731 14.2032 75.7671C13.0295 76.5612 11.647 76.9901 10.23 77ZM10.23 63.87C9.16981 63.8821 8.13177 64.175 7.22156 64.7187C6.31135 65.2625 5.56148 66.0377 5.0483 66.9655C4.53512 67.8933 4.27695 68.9405 4.30008 70.0005C4.32322 71.0605 4.62683 72.0955 5.18 73L5.32 73.23L4.72 75.42L7 74.8L7.22 74.93C8.12957 75.4658 9.1644 75.7521 10.22 75.76C11.8113 75.76 13.3374 75.1279 14.4626 74.0026C15.5879 72.8774 16.22 71.3513 16.22 69.76C16.22 68.1687 15.5879 66.6426 14.4626 65.5174C13.3374 64.3921 11.8113 63.76 10.22 63.76L10.23 63.87ZM13.73 72.39C13.599 72.6085 13.4236 72.797 13.2152 72.9434C13.0068 73.0898 12.7699 73.1909 12.52 73.24C12.1465 73.3083 11.7621 73.2842 11.4 73.17C11.0593 73.0635 10.7254 72.9366 10.4 72.79C9.16374 72.1697 8.10944 71.2394 7.34 70.09C6.92188 69.5575 6.66819 68.9145 6.61 68.24C6.60405 67.9598 6.65705 67.6815 6.76558 67.423C6.87412 67.1646 7.03575 66.9319 7.24 66.74C7.30016 66.6718 7.37397 66.617 7.45665 66.5791C7.53934 66.5412 7.62905 66.521 7.72 66.52H8C8.11 66.52 8.26 66.52 8.4 66.83C8.54 67.14 8.91 68.07 8.96 68.16C8.98457 68.208 8.99739 68.2611 8.99739 68.315C8.99739 68.3689 8.98457 68.422 8.96 68.47C8.91579 68.5787 8.85508 68.6799 8.78 68.77C8.69 68.88 8.59 69.01 8.51 69.09C8.43 69.17 8.33 69.27 8.43 69.45C8.70209 69.9092 9.03888 70.3268 9.43 70.69C9.85593 71.0664 10.3429 71.3673 10.87 71.58C11.05 71.67 11.16 71.66 11.26 71.58C11.36 71.5 11.71 71.06 11.83 70.88C11.95 70.7 12.07 70.73 12.23 70.79C12.39 70.85 13.28 71.28 13.46 71.37C13.64 71.46 13.75 71.5 13.8 71.58C13.8434 71.8417 13.8193 72.1102 13.73 72.36V72.39Z" fill="#F2EDDA"/>
<path d="M31.7241 15.12H32.8881V10.848C33.1521 11.272 33.4961 11.602 33.9201 11.838C34.3441 12.074 34.8081 12.192 35.3121 12.192C35.8961 12.192 36.4181 12.05 36.8781 11.766C37.3381 11.482 37.7001 11.094 37.9641 10.602C38.2321 10.106 38.3661 9.548 38.3661 8.928C38.3661 8.3 38.2321 7.742 37.9641 7.254C37.6961 6.762 37.3301 6.374 36.8661 6.09C36.4061 5.806 35.8801 5.664 35.2881 5.664C34.7801 5.664 34.3141 5.78 33.8901 6.012C33.4701 6.24 33.1361 6.56 32.8881 6.972V5.856H31.7241V15.12ZM35.0061 11.19C34.5901 11.19 34.2181 11.094 33.8901 10.902C33.5661 10.706 33.3101 10.438 33.1221 10.098C32.9381 9.758 32.8461 9.368 32.8461 8.928C32.8461 8.488 32.9381 8.098 33.1221 7.758C33.3101 7.418 33.5661 7.152 33.8901 6.96C34.2181 6.764 34.5901 6.666 35.0061 6.666C35.4221 6.666 35.7901 6.764 36.1101 6.96C36.4341 7.152 36.6881 7.42 36.8721 7.764C37.0601 8.104 37.1541 8.494 37.1541 8.934C37.1541 9.37 37.0621 9.758 36.8781 10.098C36.6941 10.438 36.4401 10.706 36.1161 10.902C35.7921 11.094 35.4221 11.19 35.0061 11.19ZM43.2706 12.192C43.8946 12.192 44.4606 12.058 44.9686 11.79C45.4806 11.522 45.8826 11.146 46.1746 10.662L45.3226 10.218C44.8306 10.902 44.1666 11.244 43.3306 11.244C42.8866 11.244 42.4926 11.152 42.1486 10.968C41.8086 10.78 41.5406 10.522 41.3446 10.194C41.1526 9.866 41.0566 9.488 41.0566 9.06H46.3366C46.3566 8.976 46.3666 8.892 46.3666 8.808C46.3666 8.184 46.2306 7.636 45.9586 7.164C45.6906 6.692 45.3146 6.324 44.8306 6.06C44.3506 5.796 43.7906 5.664 43.1506 5.664C42.6986 5.664 42.2746 5.748 41.8786 5.916C41.4826 6.084 41.1346 6.32 40.8346 6.624C40.5346 6.924 40.3006 7.272 40.1326 7.668C39.9646 8.064 39.8806 8.49 39.8806 8.946C39.8806 9.562 40.0286 10.116 40.3246 10.608C40.6206 11.096 41.0246 11.482 41.5366 11.766C42.0486 12.05 42.6266 12.192 43.2706 12.192ZM41.1166 8.202C41.1966 7.718 41.4226 7.332 41.7946 7.044C42.1666 6.756 42.6246 6.612 43.1686 6.612C43.6846 6.612 44.1286 6.76 44.5006 7.056C44.8766 7.348 45.1086 7.73 45.1966 8.202H41.1166ZM50.9042 12.192C51.4122 12.192 51.8782 12.074 52.3022 11.838C52.7262 11.598 53.0702 11.268 53.3342 10.848V12H54.4982V1.674H53.3342V6.978C53.0862 6.566 52.7502 6.244 52.3262 6.012C51.9062 5.78 51.4402 5.664 50.9282 5.664C50.3362 5.664 49.8082 5.806 49.3442 6.09C48.8842 6.374 48.5202 6.762 48.2522 7.254C47.9882 7.742 47.8562 8.3 47.8562 8.928C47.8562 9.56 47.9902 10.122 48.2582 10.614C48.5302 11.106 48.8962 11.492 49.3562 11.772C49.8202 12.052 50.3362 12.192 50.9042 12.192ZM51.2162 11.19C50.8002 11.19 50.4302 11.094 50.1062 10.902C49.7822 10.706 49.5282 10.438 49.3442 10.098C49.1602 9.758 49.0682 9.37 49.0682 8.934C49.0682 8.494 49.1602 8.104 49.3442 7.764C49.5322 7.42 49.7882 7.152 50.1122 6.96C50.4362 6.764 50.8062 6.666 51.2222 6.666C51.6382 6.666 52.0082 6.764 52.3322 6.96C52.6562 7.152 52.9102 7.42 53.0942 7.764C53.2782 8.104 53.3702 8.494 53.3702 8.934C53.3702 9.37 53.2782 9.758 53.0942 10.098C52.9102 10.438 52.6562 10.706 52.3322 10.902C52.0082 11.094 51.6362 11.19 51.2162 11.19ZM56.9546 12H58.1186V8.13C58.1186 7.878 58.1926 7.642 58.3406 7.422C58.4926 7.202 58.6886 7.024 58.9286 6.888C59.1726 6.748 59.4286 6.678 59.6966 6.678C59.8406 6.678 59.9946 6.698 60.1586 6.738C60.3226 6.778 60.4666 6.832 60.5906 6.9L61.0706 5.916C60.9266 5.84 60.7546 5.78 60.5546 5.736C60.3586 5.688 60.1646 5.664 59.9726 5.664C59.1526 5.664 58.5346 6.028 58.1186 6.756V5.856H56.9546V12ZM65.409 12.192C66.061 12.192 66.647 12.054 67.167 11.778C67.691 11.502 68.105 11.118 68.409 10.626C68.717 10.134 68.871 9.568 68.871 8.928C68.871 8.284 68.717 7.718 68.409 7.23C68.105 6.738 67.691 6.354 67.167 6.078C66.647 5.802 66.061 5.664 65.409 5.664C64.757 5.664 64.169 5.802 63.645 6.078C63.125 6.354 62.711 6.738 62.403 7.23C62.099 7.718 61.947 8.284 61.947 8.928C61.947 9.568 62.099 10.134 62.403 10.626C62.711 11.118 63.125 11.502 63.645 11.778C64.169 12.054 64.757 12.192 65.409 12.192ZM65.409 11.178C64.981 11.178 64.597 11.082 64.257 10.89C63.917 10.698 63.649 10.432 63.453 10.092C63.257 9.752 63.159 9.364 63.159 8.928C63.159 8.488 63.257 8.1 63.453 7.764C63.649 7.424 63.917 7.158 64.257 6.966C64.597 6.774 64.981 6.678 65.409 6.678C65.841 6.678 66.227 6.774 66.567 6.966C66.907 7.158 67.175 7.424 67.371 7.764C67.567 8.1 67.665 8.488 67.665 8.928C67.665 9.364 67.567 9.752 67.371 10.092C67.175 10.432 66.907 10.698 66.567 10.89C66.227 11.082 65.841 11.178 65.409 11.178ZM71.0693 12H72.2273V6.738H73.7573V5.856H72.2273V3.852C72.2273 3.376 72.2973 3.036 72.4373 2.832C72.5773 2.628 72.8033 2.526 73.1153 2.526C73.2393 2.526 73.3533 2.54 73.4573 2.568C73.5613 2.596 73.6513 2.63 73.7273 2.67L73.9493 1.734C73.8493 1.678 73.7133 1.626 73.5413 1.578C73.3693 1.526 73.1653 1.5 72.9293 1.5C72.3573 1.5 71.9033 1.7 71.5673 2.1C71.2353 2.5 71.0693 3.086 71.0693 3.858V5.856H70.3853V6.738H71.0693V12ZM74.3753 12H75.5273V1.68H74.3753V12ZM81.0518 12.192C81.6758 12.192 82.2418 12.058 82.7498 11.79C83.2618 11.522 83.6638 11.146 83.9558 10.662L83.1038 10.218C82.6118 10.902 81.9478 11.244 81.1118 11.244C80.6678 11.244 80.2738 11.152 79.9298 10.968C79.5898 10.78 79.3218 10.522 79.1258 10.194C78.9338 9.866 78.8378 9.488 78.8378 9.06H84.1178C84.1378 8.976 84.1478 8.892 84.1478 8.808C84.1478 8.184 84.0118 7.636 83.7398 7.164C83.4718 6.692 83.0958 6.324 82.6118 6.06C82.1318 5.796 81.5718 5.664 80.9318 5.664C80.4798 5.664 80.0558 5.748 79.6598 5.916C79.2638 6.084 78.9158 6.32 78.6158 6.624C78.3158 6.924 78.0818 7.272 77.9138 7.668C77.7458 8.064 77.6618 8.49 77.6618 8.946C77.6618 9.562 77.8098 10.116 78.1058 10.608C78.4018 11.096 78.8058 11.482 79.3178 11.766C79.8298 12.05 80.4078 12.192 81.0518 12.192ZM78.8978 8.202C78.9778 7.718 79.2038 7.332 79.5758 7.044C79.9478 6.756 80.4058 6.612 80.9498 6.612C81.4658 6.612 81.9098 6.76 82.2818 7.056C82.6578 7.348 82.8898 7.73 82.9778 8.202H78.8978ZM87.7328 12.192C88.1688 12.192 88.5548 12.092 88.8908 11.892L88.5968 10.962C88.4208 11.094 88.2208 11.16 87.9968 11.16C87.5328 11.16 87.3008 10.844 87.3008 10.212V6.738H88.7768V5.856H87.3008V3.558H86.1368V5.856H85.4528V6.738H86.1368V10.284C86.1368 10.888 86.2768 11.358 86.5568 11.694C86.8368 12.026 87.2288 12.192 87.7328 12.192ZM93.6026 12.192C94.2266 12.192 94.7926 12.058 95.3006 11.79C95.8126 11.522 96.2146 11.146 96.5066 10.662L95.6546 10.218C95.1626 10.902 94.4986 11.244 93.6626 11.244C93.2186 11.244 92.8246 11.152 92.4806 10.968C92.1406 10.78 91.8726 10.522 91.6766 10.194C91.4846 9.866 91.3886 9.488 91.3886 9.06H96.6686C96.6886 8.976 96.6986 8.892 96.6986 8.808C96.6986 8.184 96.5626 7.636 96.2906 7.164C96.0226 6.692 95.6466 6.324 95.1626 6.06C94.6826 5.796 94.1226 5.664 93.4826 5.664C93.0306 5.664 92.6066 5.748 92.2106 5.916C91.8146 6.084 91.4666 6.32 91.1666 6.624C90.8666 6.924 90.6326 7.272 90.4646 7.668C90.2966 8.064 90.2126 8.49 90.2126 8.946C90.2126 9.562 90.3606 10.116 90.6566 10.608C90.9526 11.096 91.3566 11.482 91.8686 11.766C92.3806 12.05 92.9586 12.192 93.6026 12.192ZM91.4486 8.202C91.5286 7.718 91.7546 7.332 92.1266 7.044C92.4986 6.756 92.9566 6.612 93.5006 6.612C94.0166 6.612 94.4606 6.76 94.8326 7.056C95.2086 7.348 95.4406 7.73 95.5286 8.202H91.4486ZM100.229 12.192C100.949 12.192 101.527 12.012 101.963 11.652C102.403 11.292 102.623 10.796 102.623 10.164C102.623 9.804 102.551 9.518 102.407 9.306C102.263 9.09 102.061 8.914 101.801 8.778C101.545 8.642 101.245 8.51 100.901 8.382C100.673 8.294 100.453 8.204 100.241 8.112C100.029 8.02 99.8553 7.912 99.7193 7.788C99.5833 7.66 99.5153 7.502 99.5153 7.314C99.5153 7.07 99.6093 6.872 99.7973 6.72C99.9853 6.564 100.231 6.486 100.535 6.486C101.039 6.486 101.499 6.706 101.915 7.146L102.383 6.438C101.803 5.926 101.185 5.67 100.529 5.67C100.121 5.67 99.7573 5.744 99.4373 5.892C99.1173 6.04 98.8653 6.244 98.6813 6.504C98.5013 6.764 98.4113 7.062 98.4113 7.398C98.4113 7.71 98.4873 7.968 98.6393 8.172C98.7953 8.372 98.9933 8.538 99.2333 8.67C99.4733 8.802 99.7213 8.92 99.9773 9.024C100.297 9.148 100.563 9.258 100.775 9.354C100.991 9.45 101.153 9.562 101.261 9.69C101.373 9.814 101.429 9.986 101.429 10.206C101.429 10.55 101.311 10.82 101.075 11.016C100.843 11.212 100.559 11.31 100.223 11.31C99.8793 11.31 99.5573 11.212 99.2573 11.016C98.9573 10.82 98.7013 10.544 98.4893 10.188L97.9313 10.908C98.1633 11.32 98.4753 11.638 98.8673 11.862C99.2633 12.082 99.7173 12.192 100.229 12.192ZM104.879 15.12H106.199L110.561 5.856H109.235L107.201 10.506L104.933 5.856H103.607L106.529 11.664L104.879 15.12ZM112.044 12H113.208V7.962C113.208 7.734 113.28 7.516 113.424 7.308C113.572 7.1 113.77 6.932 114.018 6.804C114.27 6.672 114.55 6.606 114.858 6.606C115.298 6.606 115.65 6.75 115.914 7.038C116.178 7.326 116.31 7.712 116.31 8.196V12H117.474V8.004C117.474 7.768 117.544 7.544 117.684 7.332C117.828 7.116 118.022 6.942 118.266 6.81C118.514 6.674 118.792 6.606 119.1 6.606C119.544 6.606 119.9 6.756 120.168 7.056C120.436 7.356 120.57 7.762 120.57 8.274V12H121.734V7.95C121.734 7.226 121.52 6.664 121.092 6.264C120.664 5.864 120.122 5.664 119.466 5.664C118.982 5.664 118.56 5.776 118.2 6C117.84 6.224 117.532 6.532 117.276 6.924C117.128 6.536 116.866 6.23 116.49 6.006C116.114 5.778 115.678 5.664 115.182 5.664C114.39 5.664 113.732 5.992 113.208 6.648V5.856H112.044V12ZM126.731 12.192C127.723 12.192 128.433 11.98 128.861 11.556C129.289 11.128 129.503 10.418 129.503 9.426V5.856H128.339V9.186C128.339 9.922 128.217 10.446 127.973 10.758C127.729 11.07 127.315 11.226 126.731 11.226C126.151 11.226 125.739 11.07 125.495 10.758C125.251 10.446 125.129 9.922 125.129 9.186V5.856H123.965V9.426C123.965 10.418 124.179 11.128 124.607 11.556C125.035 11.98 125.743 12.192 126.731 12.192ZM134.435 12.192C134.943 12.192 135.409 12.074 135.833 11.838C136.257 11.598 136.601 11.268 136.865 10.848V12H138.029V1.674H136.865V6.978C136.617 6.566 136.281 6.244 135.857 6.012C135.437 5.78 134.971 5.664 134.459 5.664C133.867 5.664 133.339 5.806 132.875 6.09C132.415 6.374 132.051 6.762 131.783 7.254C131.519 7.742 131.387 8.3 131.387 8.928C131.387 9.56 131.521 10.122 131.789 10.614C132.061 11.106 132.427 11.492 132.887 11.772C133.351 12.052 133.867 12.192 134.435 12.192ZM134.747 11.19C134.331 11.19 133.961 11.094 133.637 10.902C133.313 10.706 133.059 10.438 132.875 10.098C132.691 9.758 132.599 9.37 132.599 8.934C132.599 8.494 132.691 8.104 132.875 7.764C133.063 7.42 133.319 7.152 133.643 6.96C133.967 6.764 134.337 6.666 134.753 6.666C135.169 6.666 135.539 6.764 135.863 6.96C136.187 7.152 136.441 7.42 136.625 7.764C136.809 8.104 136.901 8.494 136.901 8.934C136.901 9.37 136.809 9.758 136.625 10.098C136.441 10.438 136.187 10.706 135.863 10.902C135.539 11.094 135.167 11.19 134.747 11.19ZM143.09 12.192C143.598 12.192 144.062 12.074 144.482 11.838C144.902 11.602 145.246 11.272 145.514 10.848V12H146.678V5.856H145.514V6.978C145.278 6.566 144.944 6.244 144.512 6.012C144.084 5.78 143.61 5.664 143.09 5.664C142.502 5.664 141.978 5.806 141.518 6.09C141.058 6.374 140.696 6.762 140.432 7.254C140.168 7.742 140.036 8.298 140.036 8.922C140.036 9.554 140.17 10.116 140.438 10.608C140.71 11.1 141.076 11.488 141.536 11.772C142 12.052 142.518 12.192 143.09 12.192ZM143.402 11.19C142.986 11.19 142.616 11.094 142.292 10.902C141.968 10.706 141.712 10.438 141.524 10.098C141.34 9.754 141.248 9.364 141.248 8.928C141.248 8.488 141.34 8.098 141.524 7.758C141.712 7.418 141.968 7.152 142.292 6.96C142.616 6.764 142.986 6.666 143.402 6.666C143.822 6.666 144.192 6.764 144.512 6.96C144.836 7.152 145.09 7.418 145.274 7.758C145.458 8.098 145.55 8.488 145.55 8.928C145.55 9.368 145.458 9.758 145.274 10.098C145.09 10.438 144.836 10.706 144.512 10.902C144.192 11.094 143.822 11.19 143.402 11.19ZM149.134 12H150.298V8.106C150.298 7.698 150.444 7.344 150.736 7.044C151.028 6.744 151.432 6.594 151.948 6.594C152.448 6.594 152.836 6.748 153.112 7.056C153.388 7.364 153.526 7.806 153.526 8.382V12H154.69V8.148C154.69 7.372 154.48 6.764 154.06 6.324C153.64 5.884 153.074 5.664 152.362 5.664C151.878 5.664 151.46 5.758 151.108 5.946C150.756 6.134 150.486 6.368 150.298 6.648V5.856H149.134V12ZM156.217 12H162.307V11.076H158.257L162.463 5.856H156.691V6.78H160.417L156.217 12ZM166.809 12.192C167.317 12.192 167.781 12.074 168.201 11.838C168.621 11.602 168.965 11.272 169.233 10.848V12H170.397V5.856H169.233V6.978C168.997 6.566 168.663 6.244 168.231 6.012C167.803 5.78 167.329 5.664 166.809 5.664C166.221 5.664 165.697 5.806 165.237 6.09C164.777 6.374 164.415 6.762 164.151 7.254C163.887 7.742 163.755 8.298 163.755 8.922C163.755 9.554 163.889 10.116 164.157 10.608C164.429 11.1 164.795 11.488 165.255 11.772C165.719 12.052 166.237 12.192 166.809 12.192ZM167.121 11.19C166.705 11.19 166.335 11.094 166.011 10.902C165.687 10.706 165.431 10.438 165.243 10.098C165.059 9.754 164.967 9.364 164.967 8.928C164.967 8.488 165.059 8.098 165.243 7.758C165.431 7.418 165.687 7.152 166.011 6.96C166.335 6.764 166.705 6.666 167.121 6.666C167.541 6.666 167.911 6.764 168.231 6.96C168.555 7.152 168.809 7.418 168.993 7.758C169.177 8.098 169.269 8.488 169.269 8.928C169.269 9.368 169.177 9.758 168.993 10.098C168.809 10.438 168.555 10.706 168.231 10.902C167.911 11.094 167.541 11.19 167.121 11.19ZM174.444 12.192C175.164 12.192 175.742 12.012 176.178 11.652C176.618 11.292 176.838 10.796 176.838 10.164C176.838 9.804 176.766 9.518 176.622 9.306C176.478 9.09 176.276 8.914 176.016 8.778C175.76 8.642 175.46 8.51 175.116 8.382C174.888 8.294 174.668 8.204 174.456 8.112C174.244 8.02 174.07 7.912 173.934 7.788C173.798 7.66 173.73 7.502 173.73 7.314C173.73 7.07 173.824 6.872 174.012 6.72C174.2 6.564 174.446 6.486 174.75 6.486C175.254 6.486 175.714 6.706 176.13 7.146L176.598 6.438C176.018 5.926 175.4 5.67 174.744 5.67C174.336 5.67 173.972 5.744 173.652 5.892C173.332 6.04 173.08 6.244 172.896 6.504C172.716 6.764 172.626 7.062 172.626 7.398C172.626 7.71 172.702 7.968 172.854 8.172C173.01 8.372 173.208 8.538 173.448 8.67C173.688 8.802 173.936 8.92 174.192 9.024C174.512 9.148 174.778 9.258 174.99 9.354C175.206 9.45 175.368 9.562 175.476 9.69C175.588 9.814 175.644 9.986 175.644 10.206C175.644 10.55 175.526 10.82 175.29 11.016C175.058 11.212 174.774 11.31 174.438 11.31C174.094 11.31 173.772 11.212 173.472 11.016C173.172 10.82 172.916 10.544 172.704 10.188L172.146 10.908C172.378 11.32 172.69 11.638 173.082 11.862C173.478 12.082 173.932 12.192 174.444 12.192ZM183.936 14.478C184.812 14.478 185.57 14.306 186.21 13.962C186.854 13.618 187.352 13.2 187.704 12.708L186.894 12.198C186.614 12.55 186.224 12.858 185.724 13.122C185.224 13.386 184.63 13.518 183.942 13.518C183.334 13.518 182.774 13.41 182.262 13.194C181.754 12.978 181.312 12.678 180.936 12.294C180.564 11.914 180.274 11.472 180.066 10.968C179.862 10.46 179.76 9.916 179.76 9.336C179.76 8.752 179.864 8.204 180.072 7.692C180.28 7.176 180.574 6.724 180.954 6.336C181.334 5.944 181.782 5.638 182.298 5.418C182.818 5.194 183.388 5.082 184.008 5.082C184.52 5.082 185.024 5.166 185.52 5.334C186.016 5.498 186.464 5.748 186.864 6.084C187.268 6.42 187.59 6.844 187.83 7.356C188.074 7.864 188.196 8.464 188.196 9.156C188.196 9.724 188.114 10.158 187.95 10.458C187.786 10.754 187.572 10.902 187.308 10.902C187.06 10.902 186.874 10.814 186.75 10.638C186.63 10.462 186.57 10.238 186.57 9.966V6.768H185.778V7.812C185.57 7.444 185.278 7.152 184.902 6.936C184.53 6.716 184.112 6.606 183.648 6.606C183.14 6.606 182.684 6.728 182.28 6.972C181.88 7.216 181.564 7.55 181.332 7.974C181.1 8.398 180.984 8.882 180.984 9.426C180.984 9.97 181.1 10.454 181.332 10.878C181.564 11.302 181.88 11.636 182.28 11.88C182.68 12.12 183.13 12.24 183.63 12.24C184.13 12.24 184.568 12.12 184.944 11.88C185.32 11.64 185.612 11.326 185.82 10.938C185.952 11.134 186.136 11.3 186.372 11.436C186.608 11.572 186.878 11.64 187.182 11.64C187.546 11.64 187.862 11.53 188.13 11.31C188.402 11.09 188.612 10.786 188.76 10.398C188.912 10.01 188.988 9.566 188.988 9.066C188.988 8.294 188.85 7.608 188.574 7.008C188.302 6.404 187.93 5.894 187.458 5.478C186.986 5.062 186.448 4.746 185.844 4.53C185.244 4.314 184.616 4.206 183.96 4.206C183.236 4.206 182.56 4.334 181.932 4.59C181.304 4.846 180.752 5.206 180.276 5.67C179.8 6.134 179.428 6.68 179.16 7.308C178.892 7.932 178.758 8.616 178.758 9.36C178.758 10.088 178.888 10.764 179.148 11.388C179.412 12.008 179.778 12.548 180.246 13.008C180.714 13.472 181.262 13.832 181.89 14.088C182.522 14.348 183.204 14.478 183.936 14.478ZM183.822 11.484C183.446 11.484 183.11 11.396 182.814 11.22C182.518 11.044 182.284 10.802 182.112 10.494C181.944 10.182 181.86 9.826 181.86 9.426C181.86 9.018 181.946 8.658 182.118 8.346C182.29 8.034 182.524 7.79 182.82 7.614C183.12 7.434 183.456 7.344 183.828 7.344C184.204 7.344 184.54 7.432 184.836 7.608C185.132 7.784 185.366 8.028 185.538 8.34C185.71 8.652 185.796 9.012 185.796 9.42C185.796 9.82 185.71 10.176 185.538 10.488C185.37 10.8 185.138 11.044 184.842 11.22C184.546 11.396 184.206 11.484 183.822 11.484ZM194.118 15.3C195.206 15.3 196.046 15.024 196.638 14.472C197.23 13.92 197.526 13.152 197.526 12.168V5.856H196.362V6.978C196.118 6.566 195.784 6.244 195.36 6.012C194.936 5.78 194.468 5.664 193.956 5.664C193.368 5.664 192.842 5.806 192.378 6.09C191.918 6.374 191.554 6.762 191.286 7.254C191.018 7.742 190.884 8.3 190.884 8.928C190.884 9.56 191.02 10.122 191.292 10.614C191.564 11.106 191.93 11.492 192.39 11.772C192.85 12.052 193.364 12.192 193.932 12.192C194.444 12.192 194.912 12.074 195.336 11.838C195.76 11.598 196.102 11.268 196.362 10.848V12.162C196.362 12.606 196.264 12.988 196.068 13.308C195.876 13.628 195.61 13.874 195.27 14.046C194.934 14.218 194.55 14.304 194.118 14.304C193.614 14.304 193.16 14.19 192.756 13.962C192.352 13.738 192.058 13.436 191.874 13.056L190.908 13.512C191.44 14.704 192.51 15.3 194.118 15.3ZM194.244 11.19C193.828 11.19 193.458 11.094 193.134 10.902C192.81 10.706 192.556 10.438 192.372 10.098C192.188 9.758 192.096 9.37 192.096 8.934C192.096 8.494 192.188 8.104 192.372 7.764C192.56 7.42 192.816 7.152 193.14 6.96C193.464 6.764 193.834 6.666 194.25 6.666C194.666 6.666 195.036 6.764 195.36 6.96C195.684 7.152 195.938 7.42 196.122 7.764C196.31 8.104 196.404 8.494 196.404 8.934C196.404 9.37 196.312 9.758 196.128 10.098C195.944 10.438 195.688 10.706 195.36 10.902C195.036 11.094 194.664 11.19 194.244 11.19ZM199.982 12H201.146V7.962C201.146 7.734 201.218 7.516 201.362 7.308C201.51 7.1 201.708 6.932 201.956 6.804C202.208 6.672 202.488 6.606 202.796 6.606C203.236 6.606 203.588 6.75 203.852 7.038C204.116 7.326 204.248 7.712 204.248 8.196V12H205.412V8.004C205.412 7.768 205.482 7.544 205.622 7.332C205.766 7.116 205.96 6.942 206.204 6.81C206.452 6.674 206.73 6.606 207.038 6.606C207.482 6.606 207.838 6.756 208.106 7.056C208.374 7.356 208.508 7.762 208.508 8.274V12H209.672V7.95C209.672 7.226 209.458 6.664 209.03 6.264C208.602 5.864 208.06 5.664 207.404 5.664C206.92 5.664 206.498 5.776 206.138 6C205.778 6.224 205.47 6.532 205.214 6.924C205.066 6.536 204.804 6.23 204.428 6.006C204.052 5.778 203.616 5.664 203.12 5.664C202.328 5.664 201.67 5.992 201.146 6.648V5.856H199.982V12ZM214.633 12.192C215.141 12.192 215.605 12.074 216.025 11.838C216.445 11.602 216.789 11.272 217.057 10.848V12H218.221V5.856H217.057V6.978C216.821 6.566 216.487 6.244 216.055 6.012C215.627 5.78 215.153 5.664 214.633 5.664C214.045 5.664 213.521 5.806 213.061 6.09C212.601 6.374 212.239 6.762 211.975 7.254C211.711 7.742 211.579 8.298 211.579 8.922C211.579 9.554 211.713 10.116 211.981 10.608C212.253 11.1 212.619 11.488 213.079 11.772C213.543 12.052 214.061 12.192 214.633 12.192ZM214.945 11.19C214.529 11.19 214.159 11.094 213.835 10.902C213.511 10.706 213.255 10.438 213.067 10.098C212.883 9.754 212.791 9.364 212.791 8.928C212.791 8.488 212.883 8.098 213.067 7.758C213.255 7.418 213.511 7.152 213.835 6.96C214.159 6.764 214.529 6.666 214.945 6.666C215.365 6.666 215.735 6.764 216.055 6.96C216.379 7.152 216.633 7.418 216.817 7.758C217.001 8.098 217.093 8.488 217.093 8.928C217.093 9.368 217.001 9.758 216.817 10.098C216.633 10.438 216.379 10.706 216.055 10.902C215.735 11.094 215.365 11.19 214.945 11.19ZM221.253 4.614C221.453 4.614 221.623 4.542 221.763 4.398C221.907 4.254 221.979 4.082 221.979 3.882C221.979 3.682 221.907 3.512 221.763 3.372C221.623 3.228 221.453 3.156 221.253 3.156C221.053 3.156 220.881 3.228 220.737 3.372C220.597 3.512 220.527 3.682 220.527 3.882C220.527 4.082 220.597 4.254 220.737 4.398C220.881 4.542 221.053 4.614 221.253 4.614ZM220.671 12H221.835V5.856H220.671V12ZM224.298 12H225.462V1.68H224.298V12ZM229.023 12.192C229.243 12.192 229.429 12.116 229.581 11.964C229.733 11.808 229.809 11.62 229.809 11.4C229.809 11.184 229.733 11 229.581 10.848C229.429 10.692 229.243 10.614 229.023 10.614C228.803 10.614 228.615 10.692 228.459 10.848C228.307 11 228.231 11.184 228.231 11.4C228.231 11.62 228.307 11.808 228.459 11.964C228.615 12.116 228.803 12.192 229.023 12.192ZM235.457 12.192C235.861 12.192 236.243 12.132 236.603 12.012C236.963 11.892 237.271 11.734 237.527 11.538L237.083 10.752C236.691 11.064 236.203 11.22 235.619 11.22C235.163 11.22 234.759 11.12 234.407 10.92C234.059 10.716 233.787 10.442 233.591 10.098C233.395 9.75 233.297 9.36 233.297 8.928C233.297 8.508 233.391 8.124 233.579 7.776C233.771 7.428 234.041 7.152 234.389 6.948C234.737 6.74 235.143 6.636 235.607 6.636C236.191 6.636 236.685 6.792 237.089 7.104L237.527 6.318C237.275 6.118 236.967 5.96 236.603 5.844C236.239 5.724 235.855 5.664 235.451 5.664C234.815 5.664 234.243 5.81 233.735 6.102C233.231 6.394 232.831 6.786 232.535 7.278C232.243 7.77 232.097 8.32 232.097 8.928C232.097 9.548 232.247 10.104 232.547 10.596C232.851 11.088 233.257 11.478 233.765 11.766C234.273 12.05 234.837 12.192 235.457 12.192ZM242.28 12.192C242.932 12.192 243.518 12.054 244.038 11.778C244.562 11.502 244.976 11.118 245.28 10.626C245.588 10.134 245.742 9.568 245.742 8.928C245.742 8.284 245.588 7.718 245.28 7.23C244.976 6.738 244.562 6.354 244.038 6.078C243.518 5.802 242.932 5.664 242.28 5.664C241.628 5.664 241.04 5.802 240.516 6.078C239.996 6.354 239.582 6.738 239.274 7.23C238.97 7.718 238.818 8.284 238.818 8.928C238.818 9.568 238.97 10.134 239.274 10.626C239.582 11.118 239.996 11.502 240.516 11.778C241.04 12.054 241.628 12.192 242.28 12.192ZM242.28 11.178C241.852 11.178 241.468 11.082 241.128 10.89C240.788 10.698 240.52 10.432 240.324 10.092C240.128 9.752 240.03 9.364 240.03 8.928C240.03 8.488 240.128 8.1 240.324 7.764C240.52 7.424 240.788 7.158 241.128 6.966C241.468 6.774 241.852 6.678 242.28 6.678C242.712 6.678 243.098 6.774 243.438 6.966C243.778 7.158 244.046 7.424 244.242 7.764C244.438 8.1 244.536 8.488 244.536 8.928C244.536 9.364 244.438 9.752 244.242 10.092C244.046 10.432 243.778 10.698 243.438 10.89C243.098 11.082 242.712 11.178 242.28 11.178ZM247.689 12H248.853V7.962C248.853 7.734 248.925 7.516 249.069 7.308C249.217 7.1 249.415 6.932 249.663 6.804C249.915 6.672 250.195 6.606 250.503 6.606C250.943 6.606 251.295 6.75 251.559 7.038C251.823 7.326 251.955 7.712 251.955 8.196V12H253.119V8.004C253.119 7.768 253.189 7.544 253.329 7.332C253.473 7.116 253.667 6.942 253.911 6.81C254.159 6.674 254.437 6.606 254.745 6.606C255.189 6.606 255.545 6.756 255.813 7.056C256.081 7.356 256.215 7.762 256.215 8.274V12H257.379V7.95C257.379 7.226 257.165 6.664 256.737 6.264C256.309 5.864 255.767 5.664 255.111 5.664C254.627 5.664 254.205 5.776 253.845 6C253.485 6.224 253.177 6.532 252.921 6.924C252.773 6.536 252.511 6.23 252.135 6.006C251.759 5.778 251.323 5.664 250.827 5.664C250.035 5.664 249.377 5.992 248.853 6.648V5.856H247.689V12Z" fill="#F2EDDA"/>
<g clip-path="url(#clip0)">
<path d="M18.7294 14.9835H1.24863C0.910457 14.9835 0.61781 14.86 0.370686 14.6128C0.123562 14.3657 0 14.0731 0 13.7349V1.24863C0 0.89745 0.12031 0.601552 0.360931 0.360931C0.601552 0.12031 0.89745 0 1.24863 0H18.7294C19.0806 0 19.3765 0.12031 19.6171 0.360931C19.8577 0.601552 19.978 0.89745 19.978 1.24863V13.7349C19.978 14.0731 19.8577 14.3657 19.6171 14.6128C19.3765 14.86 19.0806 14.9835 18.7294 14.9835ZM18.7294 1.87294C18.7294 1.70386 18.6676 1.55753 18.5441 1.43397C18.4205 1.31041 18.2742 1.24863 18.1051 1.24863H16.8565C16.5963 1.24863 16.3915 1.25838 16.2419 1.27789C16.0923 1.2974 15.8972 1.36894 15.6566 1.4925C15.416 1.61606 15.1721 1.8014 14.925 2.04853L9.98901 6.98451L5.05304 2.04853C4.80591 1.8014 4.56204 1.61606 4.32142 1.4925C4.0808 1.36894 3.88895 1.2974 3.74588 1.27789C3.60281 1.25838 3.3947 1.24863 3.12157 1.24863H1.87294C1.70385 1.24863 1.55753 1.31041 1.43397 1.43397C1.31041 1.55753 1.24863 1.70386 1.24863 1.87294V13.1106C1.24863 13.2797 1.31041 13.426 1.43397 13.5495C1.55753 13.6731 1.70385 13.7349 1.87294 13.7349H3.12157C3.29065 13.7349 3.43697 13.6731 3.56054 13.5495C3.6841 13.426 3.74588 13.2797 3.74588 13.1106V12.4668L7.86244 8.3697L9.30617 9.81343C9.50127 10.0085 9.72888 10.054 9.98901 9.94999C10.2491 10.054 10.4768 10.0085 10.6719 9.81343L12.1156 8.3697L16.2321 12.4668V13.1106C16.2321 13.2797 16.2939 13.426 16.4175 13.5495C16.541 13.6731 16.6874 13.7349 16.8565 13.7349H18.1051C18.2742 13.7349 18.4205 13.6731 18.5441 13.5495C18.6676 13.426 18.7294 13.2797 18.7294 13.1106V1.87294ZM16.2321 10.7109L12.9935 7.47225L16.2321 4.25313V10.7109ZM3.74588 4.25313L6.9845 7.47225L3.74588 10.7109V4.25313Z" fill="#F2EDDA"/>
</g>
<path d="M31.9521 37H33.1101V31.738H34.6401V30.856H33.1101V28.852C33.1101 28.376 33.1801 28.036 33.3201 27.832C33.4601 27.628 33.6861 27.526 33.9981 27.526C34.1221 27.526 34.2361 27.54 34.3401 27.568C34.4441 27.596 34.5341 27.63 34.6101 27.67L34.8321 26.734C34.7321 26.678 34.5961 26.626 34.4241 26.578C34.2521 26.526 34.0481 26.5 33.8121 26.5C33.2401 26.5 32.7861 26.7 32.4501 27.1C32.1181 27.5 31.9521 28.086 31.9521 28.858V30.856H31.2681V31.738H31.9521V37ZM35.2581 37H36.4101V26.68H35.2581V37ZM41.9346 37.192C42.5586 37.192 43.1246 37.058 43.6326 36.79C44.1446 36.522 44.5466 36.146 44.8386 35.662L43.9866 35.218C43.4946 35.902 42.8306 36.244 41.9946 36.244C41.5506 36.244 41.1566 36.152 40.8126 35.968C40.4726 35.78 40.2046 35.522 40.0086 35.194C39.8166 34.866 39.7206 34.488 39.7206 34.06H45.0006C45.0206 33.976 45.0306 33.892 45.0306 33.808C45.0306 33.184 44.8946 32.636 44.6226 32.164C44.3546 31.692 43.9786 31.324 43.4946 31.06C43.0146 30.796 42.4546 30.664 41.8146 30.664C41.3626 30.664 40.9386 30.748 40.5426 30.916C40.1466 31.084 39.7986 31.32 39.4986 31.624C39.1986 31.924 38.9646 32.272 38.7966 32.668C38.6286 33.064 38.5446 33.49 38.5446 33.946C38.5446 34.562 38.6926 35.116 38.9886 35.608C39.2846 36.096 39.6886 36.482 40.2006 36.766C40.7126 37.05 41.2906 37.192 41.9346 37.192ZM39.7806 33.202C39.8606 32.718 40.0866 32.332 40.4586 32.044C40.8306 31.756 41.2886 31.612 41.8326 31.612C42.3486 31.612 42.7926 31.76 43.1646 32.056C43.5406 32.348 43.7726 32.73 43.8606 33.202H39.7806ZM48.6156 37.192C49.0516 37.192 49.4376 37.092 49.7736 36.892L49.4796 35.962C49.3036 36.094 49.1036 36.16 48.8796 36.16C48.4156 36.16 48.1836 35.844 48.1836 35.212V31.738H49.6596V30.856H48.1836V28.558H47.0196V30.856H46.3356V31.738H47.0196V35.284C47.0196 35.888 47.1596 36.358 47.4396 36.694C47.7196 37.026 48.1116 37.192 48.6156 37.192ZM54.4854 37.192C55.1094 37.192 55.6754 37.058 56.1834 36.79C56.6954 36.522 57.0974 36.146 57.3894 35.662L56.5374 35.218C56.0454 35.902 55.3814 36.244 54.5454 36.244C54.1014 36.244 53.7074 36.152 53.3634 35.968C53.0234 35.78 52.7554 35.522 52.5594 35.194C52.3674 34.866 52.2714 34.488 52.2714 34.06H57.5514C57.5714 33.976 57.5814 33.892 57.5814 33.808C57.5814 33.184 57.4454 32.636 57.1734 32.164C56.9054 31.692 56.5294 31.324 56.0454 31.06C55.5654 30.796 55.0054 30.664 54.3654 30.664C53.9134 30.664 53.4894 30.748 53.0934 30.916C52.6974 31.084 52.3494 31.32 52.0494 31.624C51.7494 31.924 51.5154 32.272 51.3474 32.668C51.1794 33.064 51.0954 33.49 51.0954 33.946C51.0954 34.562 51.2434 35.116 51.5394 35.608C51.8354 36.096 52.2394 36.482 52.7514 36.766C53.2634 37.05 53.8414 37.192 54.4854 37.192ZM52.3314 33.202C52.4114 32.718 52.6374 32.332 53.0094 32.044C53.3814 31.756 53.8394 31.612 54.3834 31.612C54.8994 31.612 55.3434 31.76 55.7154 32.056C56.0914 32.348 56.3234 32.73 56.4114 33.202H52.3314ZM61.1121 37.192C61.8321 37.192 62.4101 37.012 62.8461 36.652C63.2861 36.292 63.5061 35.796 63.5061 35.164C63.5061 34.804 63.4341 34.518 63.2901 34.306C63.1461 34.09 62.9441 33.914 62.6841 33.778C62.4281 33.642 62.1281 33.51 61.7841 33.382C61.5561 33.294 61.3361 33.204 61.1241 33.112C60.9121 33.02 60.7381 32.912 60.6021 32.788C60.4661 32.66 60.3981 32.502 60.3981 32.314C60.3981 32.07 60.4921 31.872 60.6801 31.72C60.8681 31.564 61.1141 31.486 61.4181 31.486C61.9221 31.486 62.3821 31.706 62.7981 32.146L63.2661 31.438C62.6861 30.926 62.0681 30.67 61.4121 30.67C61.0041 30.67 60.6401 30.744 60.3201 30.892C60.0001 31.04 59.7481 31.244 59.5641 31.504C59.3841 31.764 59.2941 32.062 59.2941 32.398C59.2941 32.71 59.3701 32.968 59.5221 33.172C59.6781 33.372 59.8761 33.538 60.1161 33.67C60.3561 33.802 60.6041 33.92 60.8601 34.024C61.1801 34.148 61.4461 34.258 61.6581 34.354C61.8741 34.45 62.0361 34.562 62.1441 34.69C62.2561 34.814 62.3121 34.986 62.3121 35.206C62.3121 35.55 62.1941 35.82 61.9581 36.016C61.7261 36.212 61.4421 36.31 61.1061 36.31C60.7621 36.31 60.4401 36.212 60.1401 36.016C59.8401 35.82 59.5841 35.544 59.3721 35.188L58.8141 35.908C59.0461 36.32 59.3581 36.638 59.7501 36.862C60.1461 37.082 60.6001 37.192 61.1121 37.192ZM65.7619 40.12H67.0819L71.4439 30.856H70.1179L68.0839 35.506L65.8159 30.856H64.4899L67.4119 36.664L65.7619 40.12ZM72.9273 37H74.0913V32.962C74.0913 32.734 74.1633 32.516 74.3073 32.308C74.4553 32.1 74.6533 31.932 74.9013 31.804C75.1533 31.672 75.4333 31.606 75.7413 31.606C76.1813 31.606 76.5333 31.75 76.7973 32.038C77.0613 32.326 77.1933 32.712 77.1933 33.196V37H78.3573V33.004C78.3573 32.768 78.4273 32.544 78.5673 32.332C78.7113 32.116 78.9053 31.942 79.1493 31.81C79.3973 31.674 79.6753 31.606 79.9833 31.606C80.4273 31.606 80.7833 31.756 81.0513 32.056C81.3193 32.356 81.4533 32.762 81.4533 33.274V37H82.6173V32.95C82.6173 32.226 82.4033 31.664 81.9753 31.264C81.5473 30.864 81.0053 30.664 80.3493 30.664C79.8653 30.664 79.4433 30.776 79.0833 31C78.7233 31.224 78.4153 31.532 78.1593 31.924C78.0113 31.536 77.7493 31.23 77.3733 31.006C76.9973 30.778 76.5613 30.664 76.0653 30.664C75.2733 30.664 74.6153 30.992 74.0913 31.648V30.856H72.9273V37ZM87.6141 37.192C88.6061 37.192 89.3161 36.98 89.7441 36.556C90.1721 36.128 90.3861 35.418 90.3861 34.426V30.856H89.2221V34.186C89.2221 34.922 89.1001 35.446 88.8561 35.758C88.6121 36.07 88.1981 36.226 87.6141 36.226C87.0341 36.226 86.6221 36.07 86.3781 35.758C86.1341 35.446 86.0121 34.922 86.0121 34.186V30.856H84.8481V34.426C84.8481 35.418 85.0621 36.128 85.4901 36.556C85.9181 36.98 86.6261 37.192 87.6141 37.192ZM95.3182 37.192C95.8262 37.192 96.2922 37.074 96.7162 36.838C97.1402 36.598 97.4842 36.268 97.7482 35.848V37H98.9122V26.674H97.7482V31.978C97.5002 31.566 97.1642 31.244 96.7402 31.012C96.3202 30.78 95.8542 30.664 95.3422 30.664C94.7502 30.664 94.2222 30.806 93.7582 31.09C93.2982 31.374 92.9342 31.762 92.6662 32.254C92.4022 32.742 92.2702 33.3 92.2702 33.928C92.2702 34.56 92.4042 35.122 92.6722 35.614C92.9442 36.106 93.3102 36.492 93.7702 36.772C94.2342 37.052 94.7502 37.192 95.3182 37.192ZM95.6302 36.19C95.2142 36.19 94.8442 36.094 94.5202 35.902C94.1962 35.706 93.9422 35.438 93.7582 35.098C93.5742 34.758 93.4822 34.37 93.4822 33.934C93.4822 33.494 93.5742 33.104 93.7582 32.764C93.9462 32.42 94.2022 32.152 94.5262 31.96C94.8502 31.764 95.2202 31.666 95.6362 31.666C96.0522 31.666 96.4222 31.764 96.7462 31.96C97.0702 32.152 97.3242 32.42 97.5082 32.764C97.6922 33.104 97.7842 33.494 97.7842 33.934C97.7842 34.37 97.6922 34.758 97.5082 35.098C97.3242 35.438 97.0702 35.706 96.7462 35.902C96.4222 36.094 96.0502 36.19 95.6302 36.19ZM103.973 37.192C104.481 37.192 104.945 37.074 105.365 36.838C105.785 36.602 106.129 36.272 106.397 35.848V37H107.561V30.856H106.397V31.978C106.161 31.566 105.827 31.244 105.395 31.012C104.967 30.78 104.493 30.664 103.973 30.664C103.385 30.664 102.861 30.806 102.401 31.09C101.941 31.374 101.579 31.762 101.315 32.254C101.051 32.742 100.919 33.298 100.919 33.922C100.919 34.554 101.053 35.116 101.321 35.608C101.593 36.1 101.959 36.488 102.419 36.772C102.883 37.052 103.401 37.192 103.973 37.192ZM104.285 36.19C103.869 36.19 103.499 36.094 103.175 35.902C102.851 35.706 102.595 35.438 102.407 35.098C102.223 34.754 102.131 34.364 102.131 33.928C102.131 33.488 102.223 33.098 102.407 32.758C102.595 32.418 102.851 32.152 103.175 31.96C103.499 31.764 103.869 31.666 104.285 31.666C104.705 31.666 105.075 31.764 105.395 31.96C105.719 32.152 105.973 32.418 106.157 32.758C106.341 33.098 106.433 33.488 106.433 33.928C106.433 34.368 106.341 34.758 106.157 35.098C105.973 35.438 105.719 35.706 105.395 35.902C105.075 36.094 104.705 36.19 104.285 36.19ZM110.017 37H111.181V33.106C111.181 32.698 111.327 32.344 111.619 32.044C111.911 31.744 112.315 31.594 112.831 31.594C113.331 31.594 113.719 31.748 113.995 32.056C114.271 32.364 114.409 32.806 114.409 33.382V37H115.573V33.148C115.573 32.372 115.363 31.764 114.943 31.324C114.523 30.884 113.957 30.664 113.245 30.664C112.761 30.664 112.343 30.758 111.991 30.946C111.639 31.134 111.369 31.368 111.181 31.648V30.856H110.017V37ZM117.1 37H123.19V36.076H119.14L123.346 30.856H117.574V31.78H121.3L117.1 37ZM127.691 37.192C128.199 37.192 128.663 37.074 129.083 36.838C129.503 36.602 129.847 36.272 130.115 35.848V37H131.279V30.856H130.115V31.978C129.879 31.566 129.545 31.244 129.113 31.012C128.685 30.78 128.211 30.664 127.691 30.664C127.103 30.664 126.579 30.806 126.119 31.09C125.659 31.374 125.297 31.762 125.033 32.254C124.769 32.742 124.637 33.298 124.637 33.922C124.637 34.554 124.771 35.116 125.039 35.608C125.311 36.1 125.677 36.488 126.137 36.772C126.601 37.052 127.119 37.192 127.691 37.192ZM128.003 36.19C127.587 36.19 127.217 36.094 126.893 35.902C126.569 35.706 126.313 35.438 126.125 35.098C125.941 34.754 125.849 34.364 125.849 33.928C125.849 33.488 125.941 33.098 126.125 32.758C126.313 32.418 126.569 32.152 126.893 31.96C127.217 31.764 127.587 31.666 128.003 31.666C128.423 31.666 128.793 31.764 129.113 31.96C129.437 32.152 129.691 32.418 129.875 32.758C130.059 33.098 130.151 33.488 130.151 33.928C130.151 34.368 130.059 34.758 129.875 35.098C129.691 35.438 129.437 35.706 129.113 35.902C128.793 36.094 128.423 36.19 128.003 36.19ZM135.327 37.192C136.047 37.192 136.625 37.012 137.061 36.652C137.501 36.292 137.721 35.796 137.721 35.164C137.721 34.804 137.649 34.518 137.505 34.306C137.361 34.09 137.159 33.914 136.899 33.778C136.643 33.642 136.343 33.51 135.999 33.382C135.771 33.294 135.551 33.204 135.339 33.112C135.127 33.02 134.953 32.912 134.817 32.788C134.681 32.66 134.613 32.502 134.613 32.314C134.613 32.07 134.707 31.872 134.895 31.72C135.083 31.564 135.329 31.486 135.633 31.486C136.137 31.486 136.597 31.706 137.013 32.146L137.481 31.438C136.901 30.926 136.283 30.67 135.627 30.67C135.219 30.67 134.855 30.744 134.535 30.892C134.215 31.04 133.963 31.244 133.779 31.504C133.599 31.764 133.509 32.062 133.509 32.398C133.509 32.71 133.585 32.968 133.737 33.172C133.893 33.372 134.091 33.538 134.331 33.67C134.571 33.802 134.819 33.92 135.075 34.024C135.395 34.148 135.661 34.258 135.873 34.354C136.089 34.45 136.251 34.562 136.359 34.69C136.471 34.814 136.527 34.986 136.527 35.206C136.527 35.55 136.409 35.82 136.173 36.016C135.941 36.212 135.657 36.31 135.321 36.31C134.977 36.31 134.655 36.212 134.355 36.016C134.055 35.82 133.799 35.544 133.587 35.188L133.029 35.908C133.261 36.32 133.573 36.638 133.965 36.862C134.361 37.082 134.815 37.192 135.327 37.192ZM139.701 40.12H140.865V35.848C141.129 36.272 141.473 36.602 141.897 36.838C142.321 37.074 142.785 37.192 143.289 37.192C143.873 37.192 144.395 37.05 144.855 36.766C145.315 36.482 145.677 36.094 145.941 35.602C146.209 35.106 146.343 34.548 146.343 33.928C146.343 33.3 146.209 32.742 145.941 32.254C145.673 31.762 145.307 31.374 144.843 31.09C144.383 30.806 143.857 30.664 143.265 30.664C142.757 30.664 142.291 30.78 141.867 31.012C141.447 31.24 141.113 31.56 140.865 31.972V30.856H139.701V40.12ZM142.983 36.19C142.567 36.19 142.195 36.094 141.867 35.902C141.543 35.706 141.287 35.438 141.099 35.098C140.915 34.758 140.823 34.368 140.823 33.928C140.823 33.488 140.915 33.098 141.099 32.758C141.287 32.418 141.543 32.152 141.867 31.96C142.195 31.764 142.567 31.666 142.983 31.666C143.399 31.666 143.767 31.764 144.087 31.96C144.411 32.152 144.665 32.42 144.849 32.764C145.037 33.104 145.131 33.494 145.131 33.934C145.131 34.37 145.039 34.758 144.855 35.098C144.671 35.438 144.417 35.706 144.093 35.902C143.769 36.094 143.399 36.19 142.983 36.19ZM151.247 37.192C151.871 37.192 152.437 37.058 152.945 36.79C153.457 36.522 153.859 36.146 154.151 35.662L153.299 35.218C152.807 35.902 152.143 36.244 151.307 36.244C150.863 36.244 150.469 36.152 150.125 35.968C149.785 35.78 149.517 35.522 149.321 35.194C149.129 34.866 149.033 34.488 149.033 34.06H154.313C154.333 33.976 154.343 33.892 154.343 33.808C154.343 33.184 154.207 32.636 153.935 32.164C153.667 31.692 153.291 31.324 152.807 31.06C152.327 30.796 151.767 30.664 151.127 30.664C150.675 30.664 150.251 30.748 149.855 30.916C149.459 31.084 149.111 31.32 148.811 31.624C148.511 31.924 148.277 32.272 148.109 32.668C147.941 33.064 147.857 33.49 147.857 33.946C147.857 34.562 148.005 35.116 148.301 35.608C148.597 36.096 149.001 36.482 149.513 36.766C150.025 37.05 150.603 37.192 151.247 37.192ZM149.093 33.202C149.173 32.718 149.399 32.332 149.771 32.044C150.143 31.756 150.601 31.612 151.145 31.612C151.661 31.612 152.105 31.76 152.477 32.056C152.853 32.348 153.085 32.73 153.173 33.202H149.093ZM158.881 37.192C159.389 37.192 159.855 37.074 160.279 36.838C160.703 36.598 161.047 36.268 161.311 35.848V37H162.475V26.674H161.311V31.978C161.063 31.566 160.727 31.244 160.303 31.012C159.883 30.78 159.417 30.664 158.905 30.664C158.313 30.664 157.785 30.806 157.321 31.09C156.861 31.374 156.497 31.762 156.229 32.254C155.965 32.742 155.833 33.3 155.833 33.928C155.833 34.56 155.967 35.122 156.235 35.614C156.507 36.106 156.873 36.492 157.333 36.772C157.797 37.052 158.313 37.192 158.881 37.192ZM159.193 36.19C158.777 36.19 158.407 36.094 158.083 35.902C157.759 35.706 157.505 35.438 157.321 35.098C157.137 34.758 157.045 34.37 157.045 33.934C157.045 33.494 157.137 33.104 157.321 32.764C157.509 32.42 157.765 32.152 158.089 31.96C158.413 31.764 158.783 31.666 159.199 31.666C159.615 31.666 159.985 31.764 160.309 31.96C160.633 32.152 160.887 32.42 161.071 32.764C161.255 33.104 161.347 33.494 161.347 33.934C161.347 34.37 161.255 34.758 161.071 35.098C160.887 35.438 160.633 35.706 160.309 35.902C159.985 36.094 159.613 36.19 159.193 36.19ZM164.931 37H166.095V33.13C166.095 32.878 166.169 32.642 166.317 32.422C166.469 32.202 166.665 32.024 166.905 31.888C167.149 31.748 167.405 31.678 167.673 31.678C167.817 31.678 167.971 31.698 168.135 31.738C168.299 31.778 168.443 31.832 168.567 31.9L169.047 30.916C168.903 30.84 168.731 30.78 168.531 30.736C168.335 30.688 168.141 30.664 167.949 30.664C167.129 30.664 166.511 31.028 166.095 31.756V30.856H164.931V37ZM173.386 37.192C174.038 37.192 174.624 37.054 175.144 36.778C175.668 36.502 176.082 36.118 176.386 35.626C176.694 35.134 176.848 34.568 176.848 33.928C176.848 33.284 176.694 32.718 176.386 32.23C176.082 31.738 175.668 31.354 175.144 31.078C174.624 30.802 174.038 30.664 173.386 30.664C172.734 30.664 172.146 30.802 171.622 31.078C171.102 31.354 170.688 31.738 170.38 32.23C170.076 32.718 169.924 33.284 169.924 33.928C169.924 34.568 170.076 35.134 170.38 35.626C170.688 36.118 171.102 36.502 171.622 36.778C172.146 37.054 172.734 37.192 173.386 37.192ZM173.386 36.178C172.958 36.178 172.574 36.082 172.234 35.89C171.894 35.698 171.626 35.432 171.43 35.092C171.234 34.752 171.136 34.364 171.136 33.928C171.136 33.488 171.234 33.1 171.43 32.764C171.626 32.424 171.894 32.158 172.234 31.966C172.574 31.774 172.958 31.678 173.386 31.678C173.818 31.678 174.204 31.774 174.544 31.966C174.884 32.158 175.152 32.424 175.348 32.764C175.544 33.1 175.642 33.488 175.642 33.928C175.642 34.364 175.544 34.752 175.348 35.092C175.152 35.432 174.884 35.698 174.544 35.89C174.204 36.082 173.818 36.178 173.386 36.178ZM183.936 39.478C184.812 39.478 185.57 39.306 186.21 38.962C186.854 38.618 187.352 38.2 187.704 37.708L186.894 37.198C186.614 37.55 186.224 37.858 185.724 38.122C185.224 38.386 184.63 38.518 183.942 38.518C183.334 38.518 182.774 38.41 182.262 38.194C181.754 37.978 181.312 37.678 180.936 37.294C180.564 36.914 180.274 36.472 180.066 35.968C179.862 35.46 179.76 34.916 179.76 34.336C179.76 33.752 179.864 33.204 180.072 32.692C180.28 32.176 180.574 31.724 180.954 31.336C181.334 30.944 181.782 30.638 182.298 30.418C182.818 30.194 183.388 30.082 184.008 30.082C184.52 30.082 185.024 30.166 185.52 30.334C186.016 30.498 186.464 30.748 186.864 31.084C187.268 31.42 187.59 31.844 187.83 32.356C188.074 32.864 188.196 33.464 188.196 34.156C188.196 34.724 188.114 35.158 187.95 35.458C187.786 35.754 187.572 35.902 187.308 35.902C187.06 35.902 186.874 35.814 186.75 35.638C186.63 35.462 186.57 35.238 186.57 34.966V31.768H185.778V32.812C185.57 32.444 185.278 32.152 184.902 31.936C184.53 31.716 184.112 31.606 183.648 31.606C183.14 31.606 182.684 31.728 182.28 31.972C181.88 32.216 181.564 32.55 181.332 32.974C181.1 33.398 180.984 33.882 180.984 34.426C180.984 34.97 181.1 35.454 181.332 35.878C181.564 36.302 181.88 36.636 182.28 36.88C182.68 37.12 183.13 37.24 183.63 37.24C184.13 37.24 184.568 37.12 184.944 36.88C185.32 36.64 185.612 36.326 185.82 35.938C185.952 36.134 186.136 36.3 186.372 36.436C186.608 36.572 186.878 36.64 187.182 36.64C187.546 36.64 187.862 36.53 188.13 36.31C188.402 36.09 188.612 35.786 188.76 35.398C188.912 35.01 188.988 34.566 188.988 34.066C188.988 33.294 188.85 32.608 188.574 32.008C188.302 31.404 187.93 30.894 187.458 30.478C186.986 30.062 186.448 29.746 185.844 29.53C185.244 29.314 184.616 29.206 183.96 29.206C183.236 29.206 182.56 29.334 181.932 29.59C181.304 29.846 180.752 30.206 180.276 30.67C179.8 31.134 179.428 31.68 179.16 32.308C178.892 32.932 178.758 33.616 178.758 34.36C178.758 35.088 178.888 35.764 179.148 36.388C179.412 37.008 179.778 37.548 180.246 38.008C180.714 38.472 181.262 38.832 181.89 39.088C182.522 39.348 183.204 39.478 183.936 39.478ZM183.822 36.484C183.446 36.484 183.11 36.396 182.814 36.22C182.518 36.044 182.284 35.802 182.112 35.494C181.944 35.182 181.86 34.826 181.86 34.426C181.86 34.018 181.946 33.658 182.118 33.346C182.29 33.034 182.524 32.79 182.82 32.614C183.12 32.434 183.456 32.344 183.828 32.344C184.204 32.344 184.54 32.432 184.836 32.608C185.132 32.784 185.366 33.028 185.538 33.34C185.71 33.652 185.796 34.012 185.796 34.42C185.796 34.82 185.71 35.176 185.538 35.488C185.37 35.8 185.138 36.044 184.842 36.22C184.546 36.396 184.206 36.484 183.822 36.484ZM194.118 40.3C195.206 40.3 196.046 40.024 196.638 39.472C197.23 38.92 197.526 38.152 197.526 37.168V30.856H196.362V31.978C196.118 31.566 195.784 31.244 195.36 31.012C194.936 30.78 194.468 30.664 193.956 30.664C193.368 30.664 192.842 30.806 192.378 31.09C191.918 31.374 191.554 31.762 191.286 32.254C191.018 32.742 190.884 33.3 190.884 33.928C190.884 34.56 191.02 35.122 191.292 35.614C191.564 36.106 191.93 36.492 192.39 36.772C192.85 37.052 193.364 37.192 193.932 37.192C194.444 37.192 194.912 37.074 195.336 36.838C195.76 36.598 196.102 36.268 196.362 35.848V37.162C196.362 37.606 196.264 37.988 196.068 38.308C195.876 38.628 195.61 38.874 195.27 39.046C194.934 39.218 194.55 39.304 194.118 39.304C193.614 39.304 193.16 39.19 192.756 38.962C192.352 38.738 192.058 38.436 191.874 38.056L190.908 38.512C191.44 39.704 192.51 40.3 194.118 40.3ZM194.244 36.19C193.828 36.19 193.458 36.094 193.134 35.902C192.81 35.706 192.556 35.438 192.372 35.098C192.188 34.758 192.096 34.37 192.096 33.934C192.096 33.494 192.188 33.104 192.372 32.764C192.56 32.42 192.816 32.152 193.14 31.96C193.464 31.764 193.834 31.666 194.25 31.666C194.666 31.666 195.036 31.764 195.36 31.96C195.684 32.152 195.938 32.42 196.122 32.764C196.31 33.104 196.404 33.494 196.404 33.934C196.404 34.37 196.312 34.758 196.128 35.098C195.944 35.438 195.688 35.706 195.36 35.902C195.036 36.094 194.664 36.19 194.244 36.19ZM199.982 37H201.146V32.962C201.146 32.734 201.218 32.516 201.362 32.308C201.51 32.1 201.708 31.932 201.956 31.804C202.208 31.672 202.488 31.606 202.796 31.606C203.236 31.606 203.588 31.75 203.852 32.038C204.116 32.326 204.248 32.712 204.248 33.196V37H205.412V33.004C205.412 32.768 205.482 32.544 205.622 32.332C205.766 32.116 205.96 31.942 206.204 31.81C206.452 31.674 206.73 31.606 207.038 31.606C207.482 31.606 207.838 31.756 208.106 32.056C208.374 32.356 208.508 32.762 208.508 33.274V37H209.672V32.95C209.672 32.226 209.458 31.664 209.03 31.264C208.602 30.864 208.06 30.664 207.404 30.664C206.92 30.664 206.498 30.776 206.138 31C205.778 31.224 205.47 31.532 205.214 31.924C205.066 31.536 204.804 31.23 204.428 31.006C204.052 30.778 203.616 30.664 203.12 30.664C202.328 30.664 201.67 30.992 201.146 31.648V30.856H199.982V37ZM214.633 37.192C215.141 37.192 215.605 37.074 216.025 36.838C216.445 36.602 216.789 36.272 217.057 35.848V37H218.221V30.856H217.057V31.978C216.821 31.566 216.487 31.244 216.055 31.012C215.627 30.78 215.153 30.664 214.633 30.664C214.045 30.664 213.521 30.806 213.061 31.09C212.601 31.374 212.239 31.762 211.975 32.254C211.711 32.742 211.579 33.298 211.579 33.922C211.579 34.554 211.713 35.116 211.981 35.608C212.253 36.1 212.619 36.488 213.079 36.772C213.543 37.052 214.061 37.192 214.633 37.192ZM214.945 36.19C214.529 36.19 214.159 36.094 213.835 35.902C213.511 35.706 213.255 35.438 213.067 35.098C212.883 34.754 212.791 34.364 212.791 33.928C212.791 33.488 212.883 33.098 213.067 32.758C213.255 32.418 213.511 32.152 213.835 31.96C214.159 31.764 214.529 31.666 214.945 31.666C215.365 31.666 215.735 31.764 216.055 31.96C216.379 32.152 216.633 32.418 216.817 32.758C217.001 33.098 217.093 33.488 217.093 33.928C217.093 34.368 217.001 34.758 216.817 35.098C216.633 35.438 216.379 35.706 216.055 35.902C215.735 36.094 215.365 36.19 214.945 36.19ZM221.253 29.614C221.453 29.614 221.623 29.542 221.763 29.398C221.907 29.254 221.979 29.082 221.979 28.882C221.979 28.682 221.907 28.512 221.763 28.372C221.623 28.228 221.453 28.156 221.253 28.156C221.053 28.156 220.881 28.228 220.737 28.372C220.597 28.512 220.527 28.682 220.527 28.882C220.527 29.082 220.597 29.254 220.737 29.398C220.881 29.542 221.053 29.614 221.253 29.614ZM220.671 37H221.835V30.856H220.671V37ZM224.298 37H225.462V26.68H224.298V37ZM229.023 37.192C229.243 37.192 229.429 37.116 229.581 36.964C229.733 36.808 229.809 36.62 229.809 36.4C229.809 36.184 229.733 36 229.581 35.848C229.429 35.692 229.243 35.614 229.023 35.614C228.803 35.614 228.615 35.692 228.459 35.848C228.307 36 228.231 36.184 228.231 36.4C228.231 36.62 228.307 36.808 228.459 36.964C228.615 37.116 228.803 37.192 229.023 37.192ZM235.457 37.192C235.861 37.192 236.243 37.132 236.603 37.012C236.963 36.892 237.271 36.734 237.527 36.538L237.083 35.752C236.691 36.064 236.203 36.22 235.619 36.22C235.163 36.22 234.759 36.12 234.407 35.92C234.059 35.716 233.787 35.442 233.591 35.098C233.395 34.75 233.297 34.36 233.297 33.928C233.297 33.508 233.391 33.124 233.579 32.776C233.771 32.428 234.041 32.152 234.389 31.948C234.737 31.74 235.143 31.636 235.607 31.636C236.191 31.636 236.685 31.792 237.089 32.104L237.527 31.318C237.275 31.118 236.967 30.96 236.603 30.844C236.239 30.724 235.855 30.664 235.451 30.664C234.815 30.664 234.243 30.81 233.735 31.102C233.231 31.394 232.831 31.786 232.535 32.278C232.243 32.77 232.097 33.32 232.097 33.928C232.097 34.548 232.247 35.104 232.547 35.596C232.851 36.088 233.257 36.478 233.765 36.766C234.273 37.05 234.837 37.192 235.457 37.192ZM242.28 37.192C242.932 37.192 243.518 37.054 244.038 36.778C244.562 36.502 244.976 36.118 245.28 35.626C245.588 35.134 245.742 34.568 245.742 33.928C245.742 33.284 245.588 32.718 245.28 32.23C244.976 31.738 244.562 31.354 244.038 31.078C243.518 30.802 242.932 30.664 242.28 30.664C241.628 30.664 241.04 30.802 240.516 31.078C239.996 31.354 239.582 31.738 239.274 32.23C238.97 32.718 238.818 33.284 238.818 33.928C238.818 34.568 238.97 35.134 239.274 35.626C239.582 36.118 239.996 36.502 240.516 36.778C241.04 37.054 241.628 37.192 242.28 37.192ZM242.28 36.178C241.852 36.178 241.468 36.082 241.128 35.89C240.788 35.698 240.52 35.432 240.324 35.092C240.128 34.752 240.03 34.364 240.03 33.928C240.03 33.488 240.128 33.1 240.324 32.764C240.52 32.424 240.788 32.158 241.128 31.966C241.468 31.774 241.852 31.678 242.28 31.678C242.712 31.678 243.098 31.774 243.438 31.966C243.778 32.158 244.046 32.424 244.242 32.764C244.438 33.1 244.536 33.488 244.536 33.928C244.536 34.364 244.438 34.752 244.242 35.092C244.046 35.432 243.778 35.698 243.438 35.89C243.098 36.082 242.712 36.178 242.28 36.178ZM247.689 37H248.853V32.962C248.853 32.734 248.925 32.516 249.069 32.308C249.217 32.1 249.415 31.932 249.663 31.804C249.915 31.672 250.195 31.606 250.503 31.606C250.943 31.606 251.295 31.75 251.559 32.038C251.823 32.326 251.955 32.712 251.955 33.196V37H253.119V33.004C253.119 32.768 253.189 32.544 253.329 32.332C253.473 32.116 253.667 31.942 253.911 31.81C254.159 31.674 254.437 31.606 254.745 31.606C255.189 31.606 255.545 31.756 255.813 32.056C256.081 32.356 256.215 32.762 256.215 33.274V37H257.379V32.95C257.379 32.226 257.165 31.664 256.737 31.264C256.309 30.864 255.767 30.664 255.111 30.664C254.627 30.664 254.205 30.776 253.845 31C253.485 31.224 253.177 31.532 252.921 31.924C252.773 31.536 252.511 31.23 252.135 31.006C251.759 30.778 251.323 30.664 250.827 30.664C250.035 30.664 249.377 30.992 248.853 31.648V30.856H247.689V37Z" fill="#F2EDDA"/>
<g clip-path="url(#clip1)">
<path d="M18.7294 39.9835H1.24863C0.910457 39.9835 0.61781 39.86 0.370686 39.6128C0.123562 39.3657 0 39.0731 0 38.7349V26.2486C0 25.8975 0.12031 25.6016 0.360931 25.3609C0.601552 25.1203 0.89745 25 1.24863 25H18.7294C19.0806 25 19.3765 25.1203 19.6171 25.3609C19.8577 25.6016 19.978 25.8975 19.978 26.2486V38.7349C19.978 39.0731 19.8577 39.3657 19.6171 39.6128C19.3765 39.86 19.0806 39.9835 18.7294 39.9835ZM18.7294 26.8729C18.7294 26.7039 18.6676 26.5575 18.5441 26.434C18.4205 26.3104 18.2742 26.2486 18.1051 26.2486H16.8565C16.5963 26.2486 16.3915 26.2584 16.2419 26.2779C16.0923 26.2974 15.8972 26.3689 15.6566 26.4925C15.416 26.6161 15.1721 26.8014 14.925 27.0485L9.98901 31.9845L5.05304 27.0485C4.80591 26.8014 4.56204 26.6161 4.32142 26.4925C4.0808 26.3689 3.88895 26.2974 3.74588 26.2779C3.60281 26.2584 3.3947 26.2486 3.12157 26.2486H1.87294C1.70385 26.2486 1.55753 26.3104 1.43397 26.434C1.31041 26.5575 1.24863 26.7039 1.24863 26.8729V38.1106C1.24863 38.2797 1.31041 38.426 1.43397 38.5495C1.55753 38.6731 1.70385 38.7349 1.87294 38.7349H3.12157C3.29065 38.7349 3.43697 38.6731 3.56054 38.5495C3.6841 38.426 3.74588 38.2797 3.74588 38.1106V37.4668L7.86244 33.3697L9.30617 34.8134C9.50127 35.0085 9.72888 35.054 9.98901 34.95C10.2491 35.054 10.4768 35.0085 10.6719 34.8134L12.1156 33.3697L16.2321 37.4668V38.1106C16.2321 38.2797 16.2939 38.426 16.4175 38.5495C16.541 38.6731 16.6874 38.7349 16.8565 38.7349H18.1051C18.2742 38.7349 18.4205 38.6731 18.5441 38.5495C18.6676 38.426 18.7294 38.2797 18.7294 38.1106V26.8729ZM16.2321 35.7109L12.9935 32.4722L16.2321 29.2531V35.7109ZM3.74588 29.2531L6.9845 32.4722L3.74588 35.7109V29.2531Z" fill="#F2EDDA"/>
</g>
<defs>
<clipPath id="clip0">
<rect width="20" height="14.9835" fill="white"/>
</clipPath>
<clipPath id="clip1">
<rect width="20" height="14.9835" fill="white" transform="translate(0 25)"/>
</clipPath>
</defs>
</svg>
