<svg width="299" height="217" viewBox="0 0 299 217" fill="none" xmlns="http://www.w3.org/2000/svg">
<path d="M62.5561 26H65.6011V3.98H72.7861V1.25H55.3861V3.98H62.5561V26ZM75.2459 26H78.1559V16.325C78.1559 15.695 78.3409 15.105 78.7109 14.555C79.0909 14.005 79.5809 13.56 80.1809 13.22C80.7909 12.87 81.4309 12.695 82.1009 12.695C82.4609 12.695 82.8459 12.745 83.2559 12.845C83.6659 12.945 84.0259 13.08 84.3359 13.25L85.5359 10.79C85.1759 10.6 84.7459 10.45 84.2459 10.34C83.7559 10.22 83.2709 10.16 82.7909 10.16C80.7409 10.16 79.1959 11.07 78.1559 12.89V10.64H75.2459V26ZM95.4082 26.48C96.6782 26.48 97.8382 26.185 98.8882 25.595C99.9382 25.005 100.798 24.18 101.468 23.12V26H104.378V10.64H101.468V13.445C100.878 12.415 100.043 11.61 98.9632 11.03C97.8932 10.45 96.7082 10.16 95.4082 10.16C93.9382 10.16 92.6282 10.515 91.4782 11.225C90.3282 11.935 89.4232 12.905 88.7632 14.135C88.1032 15.355 87.7732 16.745 87.7732 18.305C87.7732 19.885 88.1082 21.29 88.7782 22.52C89.4582 23.75 90.3732 24.72 91.5232 25.43C92.6832 26.13 93.9782 26.48 95.4082 26.48ZM96.1882 23.975C95.1482 23.975 94.2232 23.735 93.4132 23.255C92.6032 22.765 91.9632 22.095 91.4932 21.245C91.0332 20.385 90.8032 19.41 90.8032 18.32C90.8032 17.22 91.0332 16.245 91.4932 15.395C91.9632 14.545 92.6032 13.88 93.4132 13.4C94.2232 12.91 95.1482 12.665 96.1882 12.665C97.2382 12.665 98.1632 12.91 98.9632 13.4C99.7732 13.88 100.408 14.545 100.868 15.395C101.328 16.245 101.558 17.22 101.558 18.32C101.558 19.42 101.328 20.395 100.868 21.245C100.408 22.095 99.7732 22.765 98.9632 23.255C98.1632 23.735 97.2382 23.975 96.1882 23.975ZM110.519 26H113.429V16.265C113.429 15.245 113.794 14.36 114.524 13.61C115.254 12.86 116.264 12.485 117.554 12.485C118.804 12.485 119.774 12.87 120.464 13.64C121.154 14.41 121.499 15.515 121.499 16.955V26H124.409V16.37C124.409 14.43 123.884 12.91 122.834 11.81C121.784 10.71 120.369 10.16 118.589 10.16C117.379 10.16 116.334 10.395 115.454 10.865C114.574 11.335 113.899 11.92 113.429 12.62V10.64H110.519V26ZM134.214 26.48C136.014 26.48 137.459 26.03 138.549 25.13C139.649 24.23 140.199 22.99 140.199 21.41C140.199 20.51 140.019 19.795 139.659 19.265C139.299 18.725 138.794 18.285 138.144 17.945C137.504 17.605 136.754 17.275 135.894 16.955C135.324 16.735 134.774 16.51 134.244 16.28C133.714 16.05 133.279 15.78 132.939 15.47C132.599 15.15 132.429 14.755 132.429 14.285C132.429 13.675 132.664 13.18 133.134 12.8C133.604 12.41 134.219 12.215 134.979 12.215C136.239 12.215 137.389 12.765 138.429 13.865L139.599 12.095C138.149 10.815 136.604 10.175 134.964 10.175C133.944 10.175 133.034 10.36 132.234 10.73C131.434 11.1 130.804 11.61 130.344 12.26C129.894 12.91 129.669 13.655 129.669 14.495C129.669 15.275 129.859 15.92 130.239 16.43C130.629 16.93 131.124 17.345 131.724 17.675C132.324 18.005 132.944 18.3 133.584 18.56C134.384 18.87 135.049 19.145 135.579 19.385C136.119 19.625 136.524 19.905 136.794 20.225C137.074 20.535 137.214 20.965 137.214 21.515C137.214 22.375 136.919 23.05 136.329 23.54C135.749 24.03 135.039 24.275 134.199 24.275C133.339 24.275 132.534 24.03 131.784 23.54C131.034 23.05 130.394 22.36 129.864 21.47L128.469 23.27C129.049 24.3 129.829 25.095 130.809 25.655C131.799 26.205 132.934 26.48 134.214 26.48ZM145.148 33.8H148.058V23.12C148.718 24.18 149.578 25.005 150.638 25.595C151.698 26.185 152.858 26.48 154.118 26.48C155.578 26.48 156.883 26.125 158.033 25.415C159.183 24.705 160.088 23.735 160.748 22.505C161.418 21.265 161.753 19.87 161.753 18.32C161.753 16.75 161.418 15.355 160.748 14.135C160.078 12.905 159.163 11.935 158.003 11.225C156.853 10.515 155.538 10.16 154.058 10.16C152.788 10.16 151.623 10.45 150.563 11.03C149.513 11.6 148.678 12.4 148.058 13.43V10.64H145.148V33.8ZM153.353 23.975C152.313 23.975 151.383 23.735 150.563 23.255C149.753 22.765 149.113 22.095 148.643 21.245C148.183 20.395 147.953 19.42 147.953 18.32C147.953 17.22 148.183 16.245 148.643 15.395C149.113 14.545 149.753 13.88 150.563 13.4C151.383 12.91 152.313 12.665 153.353 12.665C154.393 12.665 155.313 12.91 156.113 13.4C156.923 13.88 157.558 14.55 158.018 15.41C158.488 16.26 158.723 17.235 158.723 18.335C158.723 19.425 158.493 20.395 158.033 21.245C157.573 22.095 156.938 22.765 156.128 23.255C155.318 23.735 154.393 23.975 153.353 23.975ZM174.194 26.48C175.824 26.48 177.289 26.135 178.589 25.445C179.899 24.755 180.934 23.795 181.694 22.565C182.464 21.335 182.849 19.92 182.849 18.32C182.849 16.71 182.464 15.295 181.694 14.075C180.934 12.845 179.899 11.885 178.589 11.195C177.289 10.505 175.824 10.16 174.194 10.16C172.564 10.16 171.094 10.505 169.784 11.195C168.484 11.885 167.449 12.845 166.679 14.075C165.919 15.295 165.539 16.71 165.539 18.32C165.539 19.92 165.919 21.335 166.679 22.565C167.449 23.795 168.484 24.755 169.784 25.445C171.094 26.135 172.564 26.48 174.194 26.48ZM174.194 23.945C173.124 23.945 172.164 23.705 171.314 23.225C170.464 22.745 169.794 22.08 169.304 21.23C168.814 20.38 168.569 19.41 168.569 18.32C168.569 17.22 168.814 16.25 169.304 15.41C169.794 14.56 170.464 13.895 171.314 13.415C172.164 12.935 173.124 12.695 174.194 12.695C175.274 12.695 176.239 12.935 177.089 13.415C177.939 13.895 178.609 14.56 179.099 15.41C179.589 16.25 179.834 17.22 179.834 18.32C179.834 19.41 179.589 20.38 179.099 21.23C178.609 22.08 177.939 22.745 177.089 23.225C176.239 23.705 175.274 23.945 174.194 23.945ZM187.717 26H190.627V16.325C190.627 15.695 190.812 15.105 191.182 14.555C191.562 14.005 192.052 13.56 192.652 13.22C193.262 12.87 193.902 12.695 194.572 12.695C194.932 12.695 195.317 12.745 195.727 12.845C196.137 12.945 196.497 13.08 196.807 13.25L198.007 10.79C197.647 10.6 197.217 10.45 196.717 10.34C196.227 10.22 195.742 10.16 195.262 10.16C193.212 10.16 191.667 11.07 190.627 12.89V10.64H187.717V26ZM205.863 26.48C206.953 26.48 207.918 26.23 208.758 25.73L208.023 23.405C207.583 23.735 207.083 23.9 206.523 23.9C205.363 23.9 204.783 23.11 204.783 21.53V12.845H208.473V10.64H204.783V4.895H201.873V10.64H200.163V12.845H201.873V21.71C201.873 23.22 202.223 24.395 202.923 25.235C203.623 26.065 204.603 26.48 205.863 26.48ZM220.538 26.48C222.098 26.48 223.513 26.145 224.783 25.475C226.063 24.805 227.068 23.865 227.798 22.655L225.668 21.545C224.438 23.255 222.778 24.11 220.688 24.11C219.578 24.11 218.593 23.88 217.733 23.42C216.883 22.95 216.213 22.305 215.723 21.485C215.243 20.665 215.003 19.72 215.003 18.65H228.203C228.253 18.44 228.278 18.23 228.278 18.02C228.278 16.46 227.938 15.09 227.258 13.91C226.588 12.73 225.648 11.81 224.438 11.15C223.238 10.49 221.838 10.16 220.238 10.16C219.108 10.16 218.048 10.37 217.058 10.79C216.068 11.21 215.198 11.8 214.448 12.56C213.698 13.31 213.113 14.18 212.693 15.17C212.273 16.16 212.063 17.225 212.063 18.365C212.063 19.905 212.433 21.29 213.173 22.52C213.913 23.74 214.923 24.705 216.203 25.415C217.483 26.125 218.928 26.48 220.538 26.48ZM215.153 16.505C215.353 15.295 215.918 14.33 216.848 13.61C217.778 12.89 218.923 12.53 220.283 12.53C221.573 12.53 222.683 12.9 223.613 13.64C224.553 14.37 225.133 15.325 225.353 16.505H215.153ZM237.105 26.48C238.905 26.48 240.35 26.03 241.44 25.13C242.54 24.23 243.09 22.99 243.09 21.41C243.09 20.51 242.91 19.795 242.55 19.265C242.19 18.725 241.685 18.285 241.035 17.945C240.395 17.605 239.645 17.275 238.785 16.955C238.215 16.735 237.665 16.51 237.135 16.28C236.605 16.05 236.17 15.78 235.83 15.47C235.49 15.15 235.32 14.755 235.32 14.285C235.32 13.675 235.555 13.18 236.025 12.8C236.495 12.41 237.11 12.215 237.87 12.215C239.13 12.215 240.28 12.765 241.32 13.865L242.49 12.095C241.04 10.815 239.495 10.175 237.855 10.175C236.835 10.175 235.925 10.36 235.125 10.73C234.325 11.1 233.695 11.61 233.235 12.26C232.785 12.91 232.56 13.655 232.56 14.495C232.56 15.275 232.75 15.92 233.13 16.43C233.52 16.93 234.015 17.345 234.615 17.675C235.215 18.005 235.835 18.3 236.475 18.56C237.275 18.87 237.94 19.145 238.47 19.385C239.01 19.625 239.415 19.905 239.685 20.225C239.965 20.535 240.105 20.965 240.105 21.515C240.105 22.375 239.81 23.05 239.22 23.54C238.64 24.03 237.93 24.275 237.09 24.275C236.23 24.275 235.425 24.03 234.675 23.54C233.925 23.05 233.285 22.36 232.755 21.47L231.36 23.27C231.94 24.3 232.72 25.095 233.7 25.655C234.69 26.205 235.825 26.48 237.105 26.48Z" fill="white"/>
<path d="M128.377 114.146C129.015 114.238 129.904 114.397 131.043 114.625C132.182 114.807 133.413 115.149 134.734 115.65C136.102 116.152 137.469 116.858 138.836 117.77C140.249 118.635 141.525 119.82 142.664 121.324C143.803 122.828 144.715 124.674 145.398 126.861C146.128 129.049 146.492 131.669 146.492 134.723C146.492 138.049 145.877 141.308 144.646 144.498C143.416 147.688 141.707 150.536 139.52 153.043C137.332 155.504 134.734 157.486 131.727 158.99C128.719 160.54 125.46 161.314 121.951 161.314C118.305 161.314 115.138 160.745 112.449 159.605C109.806 158.512 107.618 156.939 105.887 154.889C104.201 152.883 102.947 150.468 102.127 147.643C101.307 144.771 100.896 141.604 100.896 138.141C100.896 134.449 101.512 129.687 102.742 123.854C103.973 118.02 106.251 111.321 109.578 103.756C104.337 105.898 99.1419 107.835 93.9922 109.566C88.888 111.253 83.7839 112.848 78.6797 114.352C75.9909 118.499 73.0059 122.577 69.7246 126.588C66.4434 130.553 63.0026 134.29 59.4023 137.799C55.8477 141.308 52.179 144.544 48.3965 147.506C44.6139 150.423 40.877 152.952 37.1855 155.094C33.4941 157.236 29.8939 158.899 26.3848 160.084C22.9212 161.269 19.6855 161.861 16.6777 161.861C13.9889 161.861 11.8014 161.474 10.1152 160.699C8.42904 159.924 7.10742 158.967 6.15039 157.828C5.19336 156.734 4.53255 155.527 4.16797 154.205C3.80339 152.883 3.62109 151.676 3.62109 150.582C3.62109 149.215 3.96289 147.711 4.64648 146.07C5.28451 144.384 6.28711 142.675 7.6543 140.943C9.02148 139.212 10.7533 137.525 12.8496 135.885C14.946 134.199 17.4069 132.626 20.2324 131.168C24.6074 128.935 28.9596 126.93 33.2891 125.152C37.6185 123.375 41.9023 121.757 46.1406 120.299C50.4245 118.795 54.6628 117.405 58.8555 116.129C63.0482 114.853 67.2409 113.6 71.4336 112.369C73.6667 108.45 75.7174 104.485 77.5859 100.475C79.5 96.4186 81.1406 92.4766 82.5078 88.6484C83.9206 84.8203 85.0143 81.1745 85.7891 77.7109C86.6094 74.2018 87.0195 71.0117 87.0195 68.1406C87.0195 65.9531 86.6549 63.9479 85.9258 62.125C85.2422 60.3021 84.2396 58.7526 82.918 57.4766C81.6419 56.1549 80.0697 55.1296 78.2012 54.4004C76.3327 53.6712 74.2363 53.3066 71.9121 53.3066C67.6283 53.3066 63.5267 53.8307 59.6074 54.8789C55.7337 55.8815 52.1107 57.2487 48.7383 58.9805C45.3659 60.7122 42.3125 62.7402 39.5781 65.0645C36.8893 67.3887 34.5651 69.8496 32.6055 72.4473C30.6914 75.0449 29.2103 77.7109 28.1621 80.4453C27.1139 83.1341 26.5898 85.7546 26.5898 88.3066C26.5898 90.8587 27.1139 92.9779 28.1621 94.6641C29.2559 96.3047 30.623 97.6263 32.2637 98.6289C33.9043 99.5859 35.6589 100.27 37.5273 100.68C39.4414 101.044 41.2188 101.227 42.8594 101.227C44.7279 101.227 46.5052 101.067 48.1914 100.748C49.9232 100.429 51.4271 100.087 52.7031 99.7227C54.0247 99.3581 55.0729 99.0163 55.8477 98.6973C56.668 98.3327 57.0781 98.1504 57.0781 98.1504L58.582 101.432C58.3542 101.568 57.6934 101.842 56.5996 102.252C55.5514 102.617 54.1615 103.027 52.4297 103.482C50.6979 103.938 48.6699 104.348 46.3457 104.713C44.0671 105.032 41.5833 105.191 38.8945 105.191C36.1146 105.191 33.4714 104.872 30.9648 104.234C28.5039 103.596 26.3392 102.594 24.4707 101.227C22.6478 99.8594 21.1895 98.1048 20.0957 95.9629C19.0475 93.7754 18.5234 91.1322 18.5234 88.0332C18.5234 84.5241 19.321 81.1517 20.916 77.916C22.5566 74.6803 24.7441 71.6497 27.4785 68.8242C30.2129 65.9531 33.3574 63.3555 36.9121 61.0312C40.5124 58.707 44.2721 56.7018 48.1914 55.0156C52.1562 53.3294 56.1439 52.0306 60.1543 51.1191C64.2103 50.2077 68.0612 49.752 71.707 49.752C75.0339 49.752 78.0645 50.2077 80.7988 51.1191C83.5788 52.0306 85.9714 53.3978 87.9766 55.2207C89.9818 56.998 91.5312 59.2311 92.625 61.9199C93.7643 64.6087 94.334 67.7305 94.334 71.2852C94.334 74.293 93.9694 77.5059 93.2402 80.9238C92.5111 84.3418 91.554 87.737 90.3691 91.1094C89.1842 94.4818 87.8398 97.7402 86.3359 100.885C84.832 104.029 83.2826 106.855 81.6875 109.361C86.7917 107.857 91.8275 106.285 96.7949 104.645C101.762 102.958 106.775 101.021 111.834 98.834C116.893 88.9902 121.701 80.901 126.258 74.5664C130.815 68.1862 135.031 63.1732 138.904 59.5273C142.824 55.8359 146.378 53.2839 149.568 51.8711C152.758 50.4583 155.516 49.752 157.84 49.752C160.529 49.752 162.625 50.4811 164.129 51.9395C165.633 53.3978 166.385 55.4258 166.385 58.0234C166.385 60.9857 165.268 64.153 163.035 67.5254C160.848 70.8522 157.863 74.0879 154.08 77.2324C148.429 81.9264 142.824 86.028 137.264 89.5371C131.704 93.0462 126.098 96.168 120.447 98.9023C117.85 104.417 115.708 109.384 114.021 113.805C112.335 118.225 110.991 122.19 109.988 125.699C109.031 129.208 108.348 132.33 107.938 135.064C107.527 137.799 107.322 140.214 107.322 142.311C107.322 144.954 107.687 147.255 108.416 149.215C109.145 151.129 110.148 152.724 111.424 154C112.745 155.276 114.295 156.21 116.072 156.803C117.85 157.441 119.809 157.76 121.951 157.76C124.777 157.76 127.443 157.145 129.949 155.914C132.501 154.729 134.734 153.089 136.648 150.992C138.562 148.896 140.066 146.458 141.16 143.678C142.299 140.852 142.869 137.844 142.869 134.654C142.869 131.92 142.527 129.596 141.844 127.682C141.206 125.768 140.363 124.195 139.314 122.965C138.312 121.689 137.195 120.709 135.965 120.025C134.734 119.296 133.572 118.772 132.479 118.453C131.43 118.089 130.496 117.883 129.676 117.838C128.901 117.747 128.423 117.701 128.24 117.701L128.377 114.146ZM19.7539 157.008C23.4909 157.008 27.4557 156.005 31.6484 154C35.8411 151.995 40.0566 149.238 44.2949 145.729C48.5788 142.174 52.7715 137.981 56.873 133.15C61.0202 128.32 64.8711 123.079 68.4258 117.428L64.1875 118.658C61.2708 119.524 57.9668 120.595 54.2754 121.871C50.584 123.102 46.8242 124.514 42.9961 126.109C39.168 127.704 35.4082 129.459 31.7168 131.373C28.071 133.242 24.8125 135.247 21.9414 137.389C19.1159 139.531 16.8372 141.809 15.1055 144.225C13.3737 146.594 12.5078 149.078 12.5078 151.676C12.5078 153.408 13.1686 154.729 14.4902 155.641C15.8574 156.552 17.612 157.008 19.7539 157.008ZM122.977 93.5703C127.762 91.1094 132.547 88.3294 137.332 85.2305C142.117 82.0859 146.971 78.4857 151.893 74.4297C153.898 72.7891 155.584 71.1712 156.951 69.5762C158.364 67.9811 159.503 66.4772 160.369 65.0645C161.235 63.6517 161.85 62.3529 162.215 61.168C162.625 59.9375 162.83 58.8665 162.83 57.9551C162.83 56.6335 162.42 55.5169 161.6 54.6055C160.825 53.694 159.572 53.2383 157.84 53.2383C155.971 53.2383 154.035 53.7852 152.029 54.8789C150.07 55.9271 148.064 57.4082 146.014 59.3223C143.963 61.1908 141.912 63.4238 139.861 66.0215C137.856 68.5736 135.874 71.3535 133.914 74.3613C131.954 77.3236 130.04 80.4453 128.172 83.7266C126.349 87.0078 124.617 90.2891 122.977 93.5703ZM264.07 55.6992C261.792 58.1146 259.673 60.6439 257.713 63.2871C261.997 65.6569 265.802 68.5052 269.129 71.832C272.501 75.1133 275.327 78.7363 277.605 82.7012C279.93 86.666 281.684 90.9271 282.869 95.4844C284.1 99.9961 284.715 104.667 284.715 109.498C284.715 113.782 284.282 118.043 283.416 122.281C282.596 126.52 281.274 130.576 279.451 134.449C277.674 138.277 275.395 141.855 272.615 145.182C269.835 148.463 266.508 151.334 262.635 153.795C258.761 156.21 254.34 158.102 249.373 159.469C244.406 160.882 238.823 161.588 232.625 161.588C227.111 161.588 221.87 161.064 216.902 160.016C211.935 159.013 207.173 157.896 202.615 156.666C199.106 159.036 195.255 160.882 191.062 162.203C186.915 163.525 182.221 164.186 176.98 164.186C174.839 164.186 172.993 163.98 171.443 163.57C169.894 163.206 168.618 162.682 167.615 161.998C166.658 161.314 165.929 160.517 165.428 159.605C164.972 158.74 164.744 157.828 164.744 156.871C164.744 155.732 165.018 154.661 165.564 153.658C166.157 152.61 167.023 151.699 168.162 150.924C169.347 150.149 170.828 149.534 172.605 149.078C174.428 148.622 176.548 148.395 178.963 148.395C182.29 148.395 185.594 148.759 188.875 149.488C192.202 150.172 195.574 150.969 198.992 151.881C202.319 148.873 205.35 145.273 208.084 141.08C210.864 136.842 213.507 132.239 216.014 127.271C218.566 122.258 221.049 117.018 223.465 111.549C225.926 106.08 228.523 100.589 231.258 95.0742C234.038 89.5599 237.023 84.1595 240.213 78.873C243.449 73.5866 247.072 68.6191 251.082 63.9707C247.664 62.5124 243.95 61.3958 239.939 60.6211C235.975 59.8008 231.714 59.3906 227.156 59.3906C221.596 59.3906 216.242 59.9603 211.092 61.0996C205.942 62.2389 201.134 63.8112 196.668 65.8164C192.202 67.8216 188.123 70.1686 184.432 72.8574C180.74 75.5462 177.573 78.4629 174.93 81.6074C172.332 84.7064 170.304 87.9648 168.846 91.3828C167.433 94.7552 166.727 98.1276 166.727 101.5C166.727 103.688 167.16 105.761 168.025 107.721C168.891 109.68 170.076 111.412 171.58 112.916C173.084 114.374 174.861 115.536 176.912 116.402C178.963 117.268 181.196 117.701 183.611 117.701C185.48 117.701 187.326 117.496 189.148 117.086C191.017 116.63 192.794 116.083 194.48 115.445C196.167 114.807 197.739 114.124 199.197 113.395C200.656 112.62 201.932 111.913 203.025 111.275C204.119 110.592 204.962 110.045 205.555 109.635C206.193 109.179 206.535 108.928 206.58 108.883L208.768 111.754C206.626 113.167 204.393 114.534 202.068 115.855C199.79 117.132 197.42 118.294 194.959 119.342C192.498 120.344 189.946 121.165 187.303 121.803C184.66 122.395 181.971 122.691 179.236 122.691C176.502 122.691 173.904 122.236 171.443 121.324C168.982 120.367 166.818 119.046 164.949 117.359C163.126 115.628 161.668 113.577 160.574 111.207C159.48 108.837 158.934 106.217 158.934 103.346C158.934 100.064 159.663 96.6237 161.121 93.0234C162.625 89.4232 164.744 85.8685 167.479 82.3594C170.258 78.8047 173.654 75.4323 177.664 72.2422C181.674 69.0521 186.186 66.2493 191.199 63.834C196.258 61.373 201.795 59.4362 207.811 58.0234C213.872 56.5651 220.32 55.8359 227.156 55.8359C232.124 55.8359 236.795 56.3145 241.17 57.2715C245.59 58.1829 249.715 59.5046 253.543 61.2363C256.141 58.4564 258.943 55.8587 261.951 53.4434L264.07 55.6992ZM277.264 104.85C277.264 100.611 276.785 96.5781 275.828 92.75C274.871 88.9219 273.458 85.3672 271.59 82.0859C269.767 78.8047 267.511 75.8197 264.822 73.1309C262.133 70.4421 259.057 68.1406 255.594 66.2266C252.267 71.0117 249.236 76.0703 246.502 81.4023C243.768 86.7344 241.193 92.1348 238.777 97.6035C236.362 103.072 233.992 108.495 231.668 113.873C229.344 119.251 226.906 124.4 224.354 129.322C221.847 134.199 219.113 138.756 216.15 142.994C213.188 147.187 209.861 150.833 206.17 153.932C209.816 154.934 213.462 155.8 217.107 156.529C220.753 157.304 224.513 157.691 228.387 157.691C236.408 157.691 243.471 156.324 249.578 153.59C255.685 150.81 260.789 147.05 264.891 142.311C268.992 137.525 272.068 131.92 274.119 125.494C276.215 119.068 277.264 112.187 277.264 104.85ZM176.707 160.631C180.398 160.631 183.771 160.107 186.824 159.059C189.923 158.056 192.794 156.598 195.438 154.684C192.43 153.909 189.559 153.271 186.824 152.77C184.09 152.223 181.469 151.949 178.963 151.949C175.408 151.949 172.742 152.428 170.965 153.385C169.233 154.296 168.367 155.413 168.367 156.734C168.367 157.783 168.982 158.694 170.213 159.469C171.489 160.243 173.654 160.631 176.707 160.631Z" fill="white"/>
<path d="M4.86148 209H7.90648V197.93H17.1165V195.26H7.90648V186.935H17.7915V184.25H4.86148V209ZM22.7879 209H25.6979V183.2H22.7879V209ZM39.0856 209.48C40.6456 209.48 42.0606 209.145 43.3306 208.475C44.6106 207.805 45.6156 206.865 46.3456 205.655L44.2156 204.545C42.9856 206.255 41.3256 207.11 39.2356 207.11C38.1256 207.11 37.1406 206.88 36.2806 206.42C35.4306 205.95 34.7606 205.305 34.2706 204.485C33.7906 203.665 33.5506 202.72 33.5506 201.65H46.7506C46.8006 201.44 46.8256 201.23 46.8256 201.02C46.8256 199.46 46.4856 198.09 45.8056 196.91C45.1356 195.73 44.1956 194.81 42.9856 194.15C41.7856 193.49 40.3856 193.16 38.7856 193.16C37.6556 193.16 36.5956 193.37 35.6056 193.79C34.6156 194.21 33.7456 194.8 32.9956 195.56C32.2456 196.31 31.6606 197.18 31.2406 198.17C30.8206 199.16 30.6106 200.225 30.6106 201.365C30.6106 202.905 30.9806 204.29 31.7206 205.52C32.4606 206.74 33.4706 207.705 34.7506 208.415C36.0306 209.125 37.4756 209.48 39.0856 209.48ZM33.7006 199.505C33.9006 198.295 34.4656 197.33 35.3956 196.61C36.3256 195.89 37.4706 195.53 38.8306 195.53C40.1206 195.53 41.2306 195.9 42.1606 196.64C43.1006 197.37 43.6806 198.325 43.9006 199.505H33.7006ZM55.7881 209.48C56.8781 209.48 57.8431 209.23 58.6831 208.73L57.9481 206.405C57.5081 206.735 57.0081 206.9 56.4481 206.9C55.2881 206.9 54.7081 206.11 54.7081 204.53V195.845H58.3981V193.64H54.7081V187.895H51.7981V193.64H50.0881V195.845H51.7981V204.71C51.7981 206.22 52.1481 207.395 52.8481 208.235C53.5481 209.065 54.5281 209.48 55.7881 209.48ZM70.4626 209.48C72.0226 209.48 73.4376 209.145 74.7076 208.475C75.9876 207.805 76.9926 206.865 77.7226 205.655L75.5926 204.545C74.3626 206.255 72.7026 207.11 70.6126 207.11C69.5026 207.11 68.5176 206.88 67.6576 206.42C66.8076 205.95 66.1376 205.305 65.6476 204.485C65.1676 203.665 64.9276 202.72 64.9276 201.65H78.1276C78.1776 201.44 78.2026 201.23 78.2026 201.02C78.2026 199.46 77.8626 198.09 77.1826 196.91C76.5126 195.73 75.5726 194.81 74.3626 194.15C73.1626 193.49 71.7626 193.16 70.1626 193.16C69.0326 193.16 67.9726 193.37 66.9826 193.79C65.9926 194.21 65.1226 194.8 64.3726 195.56C63.6226 196.31 63.0376 197.18 62.6176 198.17C62.1976 199.16 61.9876 200.225 61.9876 201.365C61.9876 202.905 62.3576 204.29 63.0976 205.52C63.8376 206.74 64.8476 207.705 66.1276 208.415C67.4076 209.125 68.8526 209.48 70.4626 209.48ZM65.0776 199.505C65.2776 198.295 65.8426 197.33 66.7726 196.61C67.7026 195.89 68.8476 195.53 70.2076 195.53C71.4976 195.53 72.6076 195.9 73.5376 196.64C74.4776 197.37 75.0576 198.325 75.2776 199.505H65.0776ZM87.0294 209.48C88.8294 209.48 90.2744 209.03 91.3644 208.13C92.4644 207.23 93.0144 205.99 93.0144 204.41C93.0144 203.51 92.8344 202.795 92.4744 202.265C92.1144 201.725 91.6094 201.285 90.9594 200.945C90.3194 200.605 89.5694 200.275 88.7094 199.955C88.1394 199.735 87.5894 199.51 87.0594 199.28C86.5294 199.05 86.0944 198.78 85.7544 198.47C85.4144 198.15 85.2444 197.755 85.2444 197.285C85.2444 196.675 85.4794 196.18 85.9494 195.8C86.4194 195.41 87.0344 195.215 87.7944 195.215C89.0544 195.215 90.2044 195.765 91.2444 196.865L92.4144 195.095C90.9644 193.815 89.4194 193.175 87.7794 193.175C86.7594 193.175 85.8494 193.36 85.0494 193.73C84.2494 194.1 83.6194 194.61 83.1594 195.26C82.7094 195.91 82.4844 196.655 82.4844 197.495C82.4844 198.275 82.6744 198.92 83.0544 199.43C83.4444 199.93 83.9394 200.345 84.5394 200.675C85.1394 201.005 85.7594 201.3 86.3994 201.56C87.1994 201.87 87.8644 202.145 88.3944 202.385C88.9344 202.625 89.3394 202.905 89.6094 203.225C89.8894 203.535 90.0294 203.965 90.0294 204.515C90.0294 205.375 89.7344 206.05 89.1444 206.54C88.5644 207.03 87.8544 207.275 87.0144 207.275C86.1544 207.275 85.3494 207.03 84.5994 206.54C83.8494 206.05 83.2094 205.36 82.6794 204.47L81.2844 206.27C81.8644 207.3 82.6444 208.095 83.6244 208.655C84.6144 209.205 85.7494 209.48 87.0294 209.48ZM106.3 216.8H109.6L120.505 193.64H117.19L112.105 205.265L106.435 193.64H103.12L110.425 208.16L106.3 216.8ZM131.466 209H134.511L136.896 189.83L143.541 207.755H145.581L152.226 189.83L154.611 209H157.656L154.671 184.25H151.431L144.561 202.46L137.691 184.25H134.451L131.466 209ZM169.837 209.48C172.317 209.48 174.092 208.95 175.162 207.89C176.232 206.82 176.767 205.045 176.767 202.565V193.64H173.857V201.965C173.857 203.805 173.552 205.115 172.942 205.895C172.332 206.675 171.297 207.065 169.837 207.065C168.387 207.065 167.357 206.675 166.747 205.895C166.137 205.115 165.832 203.805 165.832 201.965V193.64H162.922V202.565C162.922 205.045 163.457 206.82 164.527 207.89C165.597 208.95 167.367 209.48 169.837 209.48ZM189.097 209.48C190.367 209.48 191.532 209.185 192.592 208.595C193.652 207.995 194.512 207.17 195.172 206.12V209H198.082V183.185H195.172V196.445C194.552 195.415 193.712 194.61 192.652 194.03C191.602 193.45 190.437 193.16 189.157 193.16C187.677 193.16 186.357 193.515 185.197 194.225C184.047 194.935 183.137 195.905 182.467 197.135C181.807 198.355 181.477 199.75 181.477 201.32C181.477 202.9 181.812 204.305 182.482 205.535C183.162 206.765 184.077 207.73 185.227 208.43C186.387 209.13 187.677 209.48 189.097 209.48ZM189.877 206.975C188.837 206.975 187.912 206.735 187.102 206.255C186.292 205.765 185.657 205.095 185.197 204.245C184.737 203.395 184.507 202.425 184.507 201.335C184.507 200.235 184.737 199.26 185.197 198.41C185.667 197.55 186.307 196.88 187.117 196.4C187.927 195.91 188.852 195.665 189.892 195.665C190.932 195.665 191.857 195.91 192.667 196.4C193.477 196.88 194.112 197.55 194.572 198.41C195.032 199.26 195.262 200.235 195.262 201.335C195.262 202.425 195.032 203.395 194.572 204.245C194.112 205.095 193.477 205.765 192.667 206.255C191.857 206.735 190.927 206.975 189.877 206.975ZM210.733 209.48C212.003 209.48 213.163 209.185 214.213 208.595C215.263 208.005 216.123 207.18 216.793 206.12V209H219.703V193.64H216.793V196.445C216.203 195.415 215.368 194.61 214.288 194.03C213.218 193.45 212.033 193.16 210.733 193.16C209.263 193.16 207.953 193.515 206.803 194.225C205.653 194.935 204.748 195.905 204.088 197.135C203.428 198.355 203.098 199.745 203.098 201.305C203.098 202.885 203.433 204.29 204.103 205.52C204.783 206.75 205.698 207.72 206.848 208.43C208.008 209.13 209.303 209.48 210.733 209.48ZM211.513 206.975C210.473 206.975 209.548 206.735 208.738 206.255C207.928 205.765 207.288 205.095 206.818 204.245C206.358 203.385 206.128 202.41 206.128 201.32C206.128 200.22 206.358 199.245 206.818 198.395C207.288 197.545 207.928 196.88 208.738 196.4C209.548 195.91 210.473 195.665 211.513 195.665C212.563 195.665 213.488 195.91 214.288 196.4C215.098 196.88 215.733 197.545 216.193 198.395C216.653 199.245 216.883 200.22 216.883 201.32C216.883 202.42 216.653 203.395 216.193 204.245C215.733 205.095 215.098 205.765 214.288 206.255C213.488 206.735 212.563 206.975 211.513 206.975ZM225.845 209H228.755V199.265C228.755 198.245 229.12 197.36 229.85 196.61C230.58 195.86 231.59 195.485 232.88 195.485C234.13 195.485 235.1 195.87 235.79 196.64C236.48 197.41 236.825 198.515 236.825 199.955V209H239.735V199.37C239.735 197.43 239.21 195.91 238.16 194.81C237.11 193.71 235.695 193.16 233.915 193.16C232.705 193.16 231.66 193.395 230.78 193.865C229.9 194.335 229.225 194.92 228.755 195.62V193.64H225.845V209ZM243.551 209H258.776V206.69H248.651L259.166 193.64H244.736V195.95H254.051L243.551 209ZM270.03 209.48C271.3 209.48 272.46 209.185 273.51 208.595C274.56 208.005 275.42 207.18 276.09 206.12V209H279V193.64H276.09V196.445C275.5 195.415 274.665 194.61 273.585 194.03C272.515 193.45 271.33 193.16 270.03 193.16C268.56 193.16 267.25 193.515 266.1 194.225C264.95 194.935 264.045 195.905 263.385 197.135C262.725 198.355 262.395 199.745 262.395 201.305C262.395 202.885 262.73 204.29 263.4 205.52C264.08 206.75 264.995 207.72 266.145 208.43C267.305 209.13 268.6 209.48 270.03 209.48ZM270.81 206.975C269.77 206.975 268.845 206.735 268.035 206.255C267.225 205.765 266.585 205.095 266.115 204.245C265.655 203.385 265.425 202.41 265.425 201.32C265.425 200.22 265.655 199.245 266.115 198.395C266.585 197.545 267.225 196.88 268.035 196.4C268.845 195.91 269.77 195.665 270.81 195.665C271.86 195.665 272.785 195.91 273.585 196.4C274.395 196.88 275.03 197.545 275.49 198.395C275.95 199.245 276.18 200.22 276.18 201.32C276.18 202.42 275.95 203.395 275.49 204.245C275.03 205.095 274.395 205.765 273.585 206.255C272.785 206.735 271.86 206.975 270.81 206.975ZM289.119 209.48C290.919 209.48 292.364 209.03 293.454 208.13C294.554 207.23 295.104 205.99 295.104 204.41C295.104 203.51 294.924 202.795 294.564 202.265C294.204 201.725 293.699 201.285 293.049 200.945C292.409 200.605 291.659 200.275 290.799 199.955C290.229 199.735 289.679 199.51 289.149 199.28C288.619 199.05 288.184 198.78 287.844 198.47C287.504 198.15 287.334 197.755 287.334 197.285C287.334 196.675 287.569 196.18 288.039 195.8C288.509 195.41 289.124 195.215 289.884 195.215C291.144 195.215 292.294 195.765 293.334 196.865L294.504 195.095C293.054 193.815 291.509 193.175 289.869 193.175C288.849 193.175 287.939 193.36 287.139 193.73C286.339 194.1 285.709 194.61 285.249 195.26C284.799 195.91 284.574 196.655 284.574 197.495C284.574 198.275 284.764 198.92 285.144 199.43C285.534 199.93 286.029 200.345 286.629 200.675C287.229 201.005 287.849 201.3 288.489 201.56C289.289 201.87 289.954 202.145 290.484 202.385C291.024 202.625 291.429 202.905 291.699 203.225C291.979 203.535 292.119 203.965 292.119 204.515C292.119 205.375 291.824 206.05 291.234 206.54C290.654 207.03 289.944 207.275 289.104 207.275C288.244 207.275 287.439 207.03 286.689 206.54C285.939 206.05 285.299 205.36 284.769 204.47L283.374 206.27C283.954 207.3 284.734 208.095 285.714 208.655C286.704 209.205 287.839 209.48 289.119 209.48Z" fill="white"/>
</svg>
