<svg width="130" height="65" viewBox="0 0 130 65" fill="none" xmlns="http://www.w3.org/2000/svg">
<path d="M58.1352 36.5766C58.4125 36.6289 58.799 36.7192 59.2942 36.8487C59.7893 36.9521 60.3245 37.1463 60.8988 37.4309C61.4935 37.7161 62.0877 38.1171 62.682 38.6351C63.2963 39.1264 63.851 39.7995 64.3462 40.6538C64.8413 41.5081 65.2378 42.5567 65.5347 43.7989C65.8521 45.0417 66.0103 46.5299 66.0103 48.2646C66.0103 50.1538 65.743 52.005 65.2078 53.817C64.6731 55.6289 63.9301 57.2466 62.9794 58.6706C62.0282 60.0685 60.8988 61.1943 59.5915 62.0486C58.2839 62.929 56.8671 63.3687 55.3416 63.3687C53.7566 63.3687 52.3798 63.0455 51.2108 62.3979C50.0618 61.7771 49.1106 60.8836 48.3581 59.7192C47.6251 58.5798 47.08 57.208 46.7235 55.6034C46.367 53.972 46.1884 52.1731 46.1884 50.2061C46.1884 48.109 46.4562 45.4041 46.9909 42.0909C47.526 38.7771 48.5163 34.972 49.9627 30.675C47.6843 31.8917 45.4258 32.9919 43.1871 33.9751C40.9681 34.9334 38.7492 35.8393 36.5303 36.6936C35.3614 39.0492 34.0637 41.3655 32.6372 43.6438C31.2108 45.896 29.715 48.0187 28.1498 50.0118C26.6045 52.005 25.0096 53.8431 23.3652 55.5255C21.7208 57.1824 20.0963 58.6189 18.4915 59.8356C16.8867 61.0523 15.3216 61.9969 13.7961 62.67C12.2904 63.3431 10.8837 63.6794 9.57613 63.6794C8.40722 63.6794 7.45625 63.4595 6.72321 63.0193C5.99019 62.5791 5.41564 62.0355 4.99959 61.3886C4.58354 60.7672 4.29626 60.0816 4.13777 59.3307C3.97928 58.5797 3.90002 57.8942 3.90002 57.2727C3.90002 56.4963 4.04862 55.642 4.34579 54.7099C4.62316 53.7522 5.05902 52.7815 5.65338 51.7977C6.24774 50.8144 7.00061 49.8562 7.91194 48.9247C8.8233 47.967 9.89313 47.0735 11.1215 46.2453C13.0234 44.977 14.9154 43.8381 16.7976 42.8282C18.6797 41.8188 20.542 40.8998 22.3845 40.0716C24.2469 39.2173 26.0894 38.4278 27.9121 37.703C29.7348 36.9782 31.5575 36.2665 33.3802 35.5673C34.351 33.3412 35.2425 31.0891 36.0548 28.8113C36.8869 26.5072 37.6001 24.2681 38.1945 22.0937C38.8086 19.9192 39.2841 17.8484 39.6209 15.881C39.9776 13.8878 40.1558 12.0758 40.1558 10.445C40.1558 9.20244 39.9973 8.06346 39.6804 7.02802C39.3832 5.99259 38.9473 5.11246 38.3728 4.38767C37.818 3.63693 37.1345 3.05455 36.3222 2.64035C35.51 2.22616 34.5986 2.01906 33.5882 2.01906C31.7259 2.01906 29.9428 2.31675 28.239 2.91215C26.5549 3.48164 24.9799 4.25822 23.5138 5.24191C22.0478 6.22554 20.7203 7.37747 19.5316 8.6977C18.3627 10.0179 17.3523 11.4157 16.5004 12.8912C15.6683 14.3667 15.0244 15.881 14.5687 17.4342C14.1131 18.9615 13.8852 20.4499 13.8852 21.8995C13.8852 23.3491 14.1131 24.5529 14.5687 25.5107C15.0442 26.4425 15.6386 27.1932 16.3518 27.7627C17.065 28.3063 17.8278 28.6949 18.6401 28.9278C19.4722 29.1345 20.2449 29.2385 20.9581 29.2385C21.7704 29.2385 22.543 29.1476 23.2761 28.9664C24.0289 28.7852 24.6827 28.5909 25.2375 28.384C25.812 28.1769 26.2677 27.9828 26.6045 27.8016C26.9611 27.5945 27.1394 27.4909 27.1394 27.4909L27.7932 29.3549C27.6942 29.4322 27.4069 29.5878 26.9314 29.8207C26.4757 30.028 25.8715 30.2609 25.1186 30.5193C24.3657 30.7784 23.4841 31.0112 22.4737 31.2186C21.4831 31.3998 20.4033 31.4901 19.2344 31.4901C18.0259 31.4901 16.8769 31.3089 15.7872 30.9465C14.7173 30.5841 13.7763 30.0149 12.964 29.2385C12.1715 28.4617 11.5375 27.465 11.062 26.2484C10.6063 25.0059 10.3785 23.5045 10.3785 21.7442C10.3785 19.751 10.7252 17.8354 11.4186 15.9975C12.1319 14.1596 13.0828 12.4382 14.2716 10.8333C15.4603 9.20244 16.8273 7.72696 18.3726 6.40673C19.9378 5.08656 21.5722 3.94758 23.2761 2.98979C24.9997 2.03201 26.7333 1.29427 28.4767 0.77653C30.24 0.258843 31.9141 0 33.499 0C34.9453 0 36.2628 0.258843 37.4515 0.77653C38.66 1.29427 39.7002 2.07086 40.5719 3.10629C41.4436 4.11582 42.1172 5.38425 42.5927 6.91152C43.088 8.4388 43.3357 10.212 43.3357 12.2311C43.3357 13.9396 43.1772 15.7646 42.8602 17.706C42.5432 19.6475 42.1271 21.576 41.612 23.4915C41.0969 25.4071 40.5124 27.2579 39.8587 29.0442C39.2049 30.83 38.5313 32.4352 37.8378 33.8587C40.0568 33.0044 42.246 32.1115 44.4055 31.1799C46.5648 30.2217 48.7441 29.1215 50.9434 27.8792C53.1427 22.2878 55.2329 17.693 57.214 14.0949C59.1951 10.4709 61.0279 7.62342 62.7116 5.5525C64.4157 3.45574 65.9608 2.00617 67.3475 1.20368C68.7343 0.401189 69.9333 0 70.9436 0C72.1126 0 73.0238 0.414138 73.6777 1.24253C74.3315 2.07086 74.6584 3.22279 74.6584 4.69826C74.6584 6.38089 74.1728 8.17995 73.2021 10.0955C72.2513 11.9852 70.9536 13.8231 69.3091 15.6092C66.8524 18.2755 64.4157 20.6052 61.9986 22.5985C59.5815 24.5917 57.1444 26.3649 54.6878 27.918C53.5588 31.0504 52.6276 33.8717 51.8942 36.3829C51.1612 38.8936 50.577 41.1457 50.1409 43.1389C49.7249 45.132 49.428 46.9054 49.2497 48.4583C49.0711 50.0118 48.9819 51.3836 48.9819 52.5747C48.9819 54.076 49.1406 55.383 49.4575 56.4963C49.7745 57.5834 50.2105 58.4894 50.7652 59.2142C51.3395 59.939 52.0133 60.4695 52.7858 60.8064C53.5588 61.1687 54.4104 61.3499 55.3416 61.3499C56.5702 61.3499 57.7291 61.0006 58.8186 60.3014C59.928 59.6283 60.8988 58.6968 61.7308 57.5056C62.5629 56.3151 63.2167 54.9303 63.6923 53.3512C64.1875 51.746 64.4353 50.0374 64.4353 48.2254C64.4353 46.6725 64.2866 45.3524 63.9897 44.2653C63.7123 43.1781 63.3459 42.2846 62.8898 41.5859C62.4542 40.8611 61.9686 40.3045 61.4339 39.916C60.8988 39.5019 60.3936 39.2043 59.9184 39.0231C59.4624 38.8163 59.0564 38.6993 58.6999 38.6737C58.363 38.622 58.1552 38.5959 58.0756 38.5959L58.1352 36.5766ZM10.9134 60.9228C12.538 60.9228 14.2616 60.3531 16.0843 59.2142C17.907 58.0753 19.7396 56.5093 21.5822 54.5162C23.4445 52.4969 25.2672 50.1152 27.0502 47.3711C28.8531 44.6276 30.5272 41.6507 32.0726 38.4408L30.2301 39.1395C28.9621 39.6314 27.5257 40.2397 25.921 40.9645C24.3162 41.6638 22.6817 42.4658 21.0175 43.3718C19.3533 44.2777 17.7188 45.2746 16.1141 46.3618C14.5291 47.4234 13.1126 48.5623 11.8644 49.779C10.6361 50.9956 9.64547 52.2896 8.89264 53.6619C8.13978 55.0075 7.76335 56.4185 7.76335 57.8941C7.76335 58.8779 8.05062 59.6283 8.62515 60.1463C9.21952 60.6638 9.9823 60.9228 10.9134 60.9228ZM55.7876 24.8894C57.8678 23.4915 59.948 21.9125 62.0282 20.1522C64.1084 18.3661 66.2186 16.3211 68.3583 14.0173C69.2299 13.0854 69.9629 12.1664 70.5572 11.2604C71.1714 10.3544 71.6666 9.50013 72.0431 8.6977C72.4195 7.89521 72.6869 7.15747 72.8456 6.48444C73.0238 5.7855 73.1129 5.17716 73.1129 4.65947C73.1129 3.90878 72.9347 3.27454 72.5782 2.75685C72.2413 2.23911 71.6966 1.98026 70.9436 1.98026C70.1311 1.98026 69.2895 2.29091 68.4174 2.91215C67.5658 3.50754 66.6937 4.34882 65.8025 5.43606C64.9109 6.49739 64.0192 7.76576 63.1276 9.24129C62.256 10.6909 61.3944 12.2699 60.5423 13.9784C59.6902 15.661 58.8581 17.4342 58.0461 19.298C57.2535 21.1618 56.5006 23.0256 55.7876 24.8894ZM117.125 3.37809C116.135 4.75007 115.214 6.18674 114.361 7.68811C116.224 9.03419 117.878 10.6521 119.324 12.5417C120.79 14.4055 122.019 16.4635 123.009 18.7156C124.02 20.9676 124.782 23.388 125.298 25.9766C125.833 28.5393 126.1 31.1924 126.1 33.9365C126.1 36.3699 125.912 38.7902 125.535 41.1974C125.179 43.6052 124.604 45.9091 123.812 48.109C123.039 50.2834 122.048 52.3157 120.84 54.2055C119.631 56.0691 118.185 57.6999 116.501 59.0978C114.817 60.4695 112.895 61.5442 110.736 62.3207C108.576 63.1233 106.149 63.5243 103.455 63.5243C101.058 63.5243 98.7794 63.2267 96.6197 62.6314C94.4604 62.0617 92.3902 61.4272 90.4087 60.7285C88.8832 62.0747 87.2091 63.1233 85.3862 63.8736C83.5834 64.6245 81.5428 65 79.2644 65C78.3336 65 77.5311 64.883 76.8573 64.6501C76.1839 64.4433 75.6292 64.1457 75.1931 63.7572C74.7771 63.3687 74.4602 62.916 74.2424 62.3979C74.0441 61.9066 73.945 61.3886 73.945 60.845C73.945 60.198 74.0641 59.5897 74.3015 59.02C74.5593 58.4247 74.9358 57.9072 75.4309 57.467C75.9461 57.0268 76.5899 56.6775 77.3624 56.4185C78.1549 56.1594 79.0766 56.0305 80.1264 56.0305C81.5728 56.0305 83.0091 56.2373 84.4355 56.6513C85.8818 57.0399 87.3477 57.4926 88.8337 58.0106C90.28 56.302 91.5977 54.2572 92.7862 51.8755C93.9948 49.4683 95.1438 46.8537 96.2336 44.0318C97.3431 41.1843 98.4225 38.208 99.4728 35.1015C100.543 31.995 101.672 28.8761 102.861 25.7436C104.069 22.6114 105.367 19.5439 106.754 16.5411C108.16 13.5384 109.735 10.7168 111.479 8.07641C109.993 7.24807 108.378 6.61383 106.635 6.17379C104.911 5.70785 103.059 5.47485 101.077 5.47485C98.6603 5.47485 96.3327 5.79845 94.0939 6.44559C91.855 7.09272 89.7648 7.98581 87.8233 9.12479C85.8818 10.2638 84.1086 11.5969 82.504 13.1242C80.899 14.6514 79.5222 16.3082 78.3732 18.0943C77.2437 19.8546 76.3621 21.7054 75.7283 23.6468C75.114 25.5624 74.8071 27.478 74.8071 29.3935C74.8071 30.6363 74.9953 31.8138 75.3714 32.9271C75.7478 34.0399 76.263 35.0237 76.9168 35.878C77.5707 36.7061 78.3432 37.3662 79.2348 37.8581C80.1264 38.35 81.0972 38.5959 82.1471 38.5959C82.9596 38.5959 83.7621 38.4795 84.5542 38.2466C85.3667 37.9876 86.1392 37.6769 86.8721 37.3145C87.6055 36.9521 88.2889 36.5641 88.9228 36.15C89.557 35.7098 90.1118 35.3083 90.5869 34.9459C91.0625 34.5579 91.429 34.2472 91.6868 34.0143C91.9641 33.7553 92.1128 33.6127 92.1324 33.5872L93.0836 35.2179C92.1524 36.0205 91.1816 36.797 90.1709 37.5474C89.1806 38.2727 88.1503 38.9327 87.0804 39.528C86.0105 40.0972 84.9011 40.5635 83.7521 40.9259C82.6031 41.2622 81.4341 41.4303 80.2451 41.4303C79.0566 41.4303 77.9271 41.1718 76.8573 40.6538C75.7874 40.1102 74.8466 39.3599 74.0341 38.4017C73.2416 37.4184 72.6078 36.2534 72.1322 34.9072C71.6566 33.561 71.4192 32.0729 71.4192 30.4421C71.4192 28.5779 71.7362 26.6237 72.37 24.5787C73.0238 22.5338 73.945 20.5146 75.134 18.5214C76.3421 16.5023 77.8185 14.5867 79.5617 12.7747C81.305 10.9627 83.2665 9.37068 85.4458 7.99876C87.6451 6.60088 90.0522 5.50075 92.6675 4.69826C95.3024 3.86993 98.1056 3.45573 101.077 3.45573C103.237 3.45573 105.268 3.72759 107.17 4.27117C109.091 4.78886 110.884 5.5396 112.549 6.52323C113.678 4.94421 114.896 3.46869 116.204 2.09676L117.125 3.37809ZM122.861 31.2964C122.861 28.8886 122.653 26.5978 122.237 24.4234C121.821 22.249 121.206 20.2299 120.394 18.3661C119.602 16.5023 118.621 14.8068 117.452 13.2795C116.283 11.7522 114.946 10.445 113.44 9.35779C111.994 12.0758 110.676 14.9491 109.488 17.9778C108.299 21.0065 107.18 24.074 106.129 27.1803C105.08 30.2865 104.049 33.3668 103.039 36.4216C102.029 39.4763 100.969 42.401 99.8593 45.1968C98.7694 47.967 97.5809 50.5554 96.2927 52.9627C95.0051 55.3443 93.5587 57.4153 91.9541 59.1756C93.5392 59.7447 95.1242 60.2366 96.7088 60.6507C98.2938 61.0909 99.9284 61.3107 101.613 61.3107C105.1 61.3107 108.17 60.5343 110.825 58.9813C113.48 57.4023 115.699 55.2665 117.482 52.5747C119.265 49.8562 120.602 46.6725 121.494 43.0224C122.405 39.3724 122.861 35.4639 122.861 31.2964ZM79.1457 62.9807C80.7503 62.9807 82.2166 62.6831 83.5439 62.0878C84.8911 61.5181 86.1392 60.6899 87.2886 59.6027C85.981 59.1625 84.7328 58.8001 83.5439 58.5156C82.3553 58.2049 81.2159 58.0492 80.1264 58.0492C78.581 58.0492 77.422 58.3213 76.6495 58.8649C75.8965 59.3823 75.52 60.0168 75.52 60.7672C75.52 61.363 75.7874 61.8805 76.3225 62.3207C76.8773 62.7603 77.8185 62.9807 79.1457 62.9807Z" fill="#F2EDDA"/>
</svg>
