<svg width="80" height="64" viewBox="0 0 80 64" fill="none" xmlns="http://www.w3.org/2000/svg">
<g clip-path="url(#clip0)">
<path d="M15.9989 12C19.3114 12 21.9989 9.3125 21.9989 6C21.9989 2.6875 19.3114 0 15.9989 0C12.6864 0 9.99894 2.6875 9.99894 6C9.99894 9.3125 12.6864 12 15.9989 12ZM63.9989 12C67.3114 12 69.9989 9.3125 69.9989 6C69.9989 2.6875 67.3114 0 63.9989 0C60.6864 0 57.9989 2.6875 57.9989 6C57.9989 9.3125 60.6864 12 63.9989 12ZM79.7114 58.5125L74.2114 44.7625L69.0739 50.5625L68.8239 52.8375L72.2864 61.4875C72.9114 63.05 74.4114 64 75.9989 64C76.4989 64 76.9989 63.9125 77.4864 63.7125C79.5364 62.8875 80.5364 60.5625 79.7114 58.5125ZM75.4364 32.2875L73.1239 22.2625C72.5489 19.7625 70.7989 17.6625 68.4364 16.65C66.1239 15.65 63.5614 15.8125 61.4239 17.0625C58.5864 18.7375 56.4614 21.375 55.4114 24.4875L53.9989 28.725L51.9989 30V18C51.9989 16.9 51.0989 16 49.9989 16H29.9989C28.8989 16 27.9989 16.9 27.9989 18V30L25.9864 28.725L24.5739 24.4875C23.5364 21.3625 21.3989 18.7375 18.5614 17.0625C16.4114 15.8125 13.8614 15.65 11.5489 16.65C9.18644 17.6625 7.43644 19.7625 6.86144 22.2625L4.56144 32.2875C3.98644 34.7875 4.64894 37.4375 6.36144 39.375L14.7614 48.8625L16.0239 60.4375C16.2489 62.475 17.9739 64 19.9989 64C20.1489 64 20.2864 63.9875 20.4364 63.975C22.6364 63.7375 24.2114 61.7625 23.9739 59.5625L22.7114 47.9625C22.5239 46.3375 21.8489 44.825 20.7614 43.5875L15.3489 37.4625L17.5489 28.675L18.3989 31.225C18.9114 32.7875 19.8864 34.15 21.4614 35.3L27.8489 39.3625C28.4239 39.725 29.3614 39.9375 29.9989 39.9875H49.9989C50.6364 39.9375 51.5739 39.725 52.1489 39.3625L58.5364 35.3C60.1114 34.15 61.0864 32.8 61.5989 31.225L62.4489 28.675L64.6489 37.4625L59.2364 43.5875C58.1489 44.825 57.4739 46.3375 57.2864 47.9625L56.0239 59.5625C55.7864 61.7625 57.3739 63.7375 59.5614 63.975C59.7114 63.9875 59.8489 64 59.9989 64C62.0114 64 63.7489 62.4875 63.9739 60.4375L65.2364 48.8625L73.6364 39.375C75.3364 37.4375 76.0114 34.7875 75.4364 32.2875ZM5.78644 44.7625L0.286442 58.5125C-0.538558 60.5625 0.461442 62.8875 2.51144 63.7125C4.61144 64.5375 6.89894 63.5 7.71144 61.4875L11.1739 52.8375L10.9239 50.5625L5.78644 44.7625Z" fill="#D31026"/>
</g>
<defs>
<clipPath id="clip0">
<rect width="80" height="64" fill="white"/>
</clipPath>
</defs>
</svg>
